<svg width="49" height="49" viewBox="0 0 49 49" fill="none" xmlns="http://www.w3.org/2000/svg">
<path d="M24.5166 1.48376C11.7713 1.48376 1.44153 11.8136 1.44153 24.5564C1.44121 27.5868 2.03785 30.5875 3.19737 33.3872C4.35689 36.1869 6.05657 38.7308 8.19935 40.8736C10.3421 43.0164 12.886 44.7161 15.6858 45.8756C18.4855 47.0351 21.4862 47.6318 24.5166 47.6314C37.257 47.6314 47.5892 37.3016 47.5892 24.5564C47.5892 11.8136 37.257 1.48376 24.5166 1.48376ZM26.67 9.81395C28.9196 9.81395 29.5805 11.119 29.5805 12.6115C29.5805 14.4741 28.0904 16.1974 25.5452 16.1974C23.4158 16.1974 22.4016 15.1279 22.4641 13.3566C22.4641 11.864 23.7114 9.81395 26.67 9.81395Z" fill="#064E95"/>
<path d="M20.9067 38.376C19.3685 38.376 18.2461 37.4411 19.3205 33.3433L21.0821 26.073C21.3874 24.9098 21.4378 24.4435 21.0821 24.4435C20.6231 24.4435 18.6259 25.2462 17.4482 26.0394L16.6815 24.7824C20.4188 21.6604 24.7161 19.829 26.5547 19.829C28.0929 19.829 28.3476 21.6459 27.5809 24.4435L25.5621 32.0863C25.204 33.437 25.3578 33.9033 25.7159 33.9033C26.1774 33.9033 27.6867 33.3457 29.172 32.1752L30.042 33.3433C26.4057 36.9772 22.4425 38.376 20.9067 38.376Z" fill="white"/>
</svg>
