<svg width="141" height="138" viewBox="0 0 141 138" fill="none" xmlns="http://www.w3.org/2000/svg">
<g opacity="0.7">
<path opacity="0.7" d="M67.5941 70.5456C55.3646 71.0093 43.2337 68.195 32.4575 62.3942C21.6813 56.5933 12.652 48.0168 6.30483 37.5531C3.6079 33.2518 1.52815 28.5931 0.126465 23.7136V29.8919C1.46439 35.4183 3.54263 40.7386 6.30483 45.7085C12.2999 56.7248 21.1519 65.9228 31.9303 72.3357C42.7088 78.7486 55.0156 82.1395 67.5575 82.1521C80.0995 82.1648 92.4132 78.7986 103.205 72.4075C113.996 66.0164 122.866 56.8363 128.884 45.8321C131.169 41.5627 132.952 37.043 134.197 32.3633V25.7524C132.916 29.9085 131.132 33.8922 128.884 37.6149C122.522 48.079 113.48 56.6543 102.695 62.4545C91.909 68.2547 79.7701 71.0692 67.5325 70.6074" fill="white"/>
</g>
<path d="M67.5927 52.9284C55.3653 53.3792 43.2391 50.5593 32.4653 44.7597C21.6914 38.96 12.6602 30.3907 6.30337 19.936C3.60644 15.6346 1.52669 10.9761 0.125 6.0965V12.2749C1.47289 17.7981 3.55062 23.117 6.30337 28.0915C12.3046 39.1169 21.1675 48.3203 31.9588 54.7329C42.7502 61.1454 55.0707 64.5299 67.6236 64.5299C80.1765 64.5299 92.4972 61.1454 103.289 54.7329C114.08 48.3203 122.943 39.1169 128.944 28.0915C131.229 23.8221 133.012 19.3023 134.257 14.6226V8.01178C132.977 12.1678 131.192 16.1516 128.944 19.8742C122.572 30.3294 113.529 38.8976 102.746 44.6965C91.9623 50.4954 79.8282 53.3156 67.5927 52.8667" fill="white"/>
<g opacity="0.3">
<path opacity="0.3" d="M67.5932 87.9022C55.3637 88.3659 43.2327 85.5516 32.4565 79.7507C21.6804 73.9498 12.651 65.3734 6.30386 54.9097C3.60856 50.6295 1.52873 45.9915 0.125488 41.132V47.3103C1.46341 52.8367 3.54165 58.157 6.30386 63.1269C12.3051 74.1523 21.168 83.3558 31.9593 89.7683C42.7507 96.1809 55.0712 99.5653 67.6241 99.5653C80.1769 99.5653 92.4977 96.1809 103.289 89.7683C114.08 83.3558 122.943 74.1523 128.944 63.1269C131.23 58.8575 133.013 54.3377 134.258 49.658V43.109C132.964 47.2407 131.181 51.2025 128.944 54.9097C122.582 65.3738 113.541 73.9491 102.756 79.7493C91.9699 85.5495 79.8308 88.364 67.5932 87.9022Z" fill="white"/>
</g>
<g opacity="0.7">
<path opacity="0.7" d="M76.7382 82.5217C71.9165 93.7717 64.1821 103.532 54.332 110.798C44.4819 118.063 32.8724 122.57 20.7003 123.855C15.7142 124.344 10.6849 124.157 5.74878 123.299L11.371 125.956C16.8883 127.15 22.5368 127.628 28.1763 127.377C40.706 126.652 52.8087 122.563 63.2107 115.541C73.6128 108.518 81.9293 98.8214 87.2852 87.4709C92.6411 76.1204 94.8384 63.536 93.6455 51.0421C92.4527 38.5482 87.914 26.6069 80.5071 16.475C77.6259 12.5681 74.2862 9.02098 70.5598 5.90993L64.3814 3.06793C67.582 6.00132 70.4047 9.32196 72.7841 12.9533C79.5415 23.1683 83.4478 35.0028 84.0995 47.2333C84.7512 59.4638 82.1245 71.6464 76.491 82.5217" fill="white"/>
</g>
<g opacity="0.3">
<path opacity="0.3" d="M92.5554 90.0061C87.7337 101.256 79.9993 111.017 70.1492 118.282C60.2991 125.548 48.6896 130.055 36.5175 131.339C31.5107 131.826 26.4612 131.639 21.5042 130.783L27.1883 133.44C32.704 134.643 38.3562 135.1 43.9935 134.799C56.5222 134.087 68.6269 130.009 79.0317 122.994C89.4366 115.978 97.7561 106.286 103.114 94.9383C108.471 83.5905 110.669 71.0077 109.474 58.5158C108.279 46.0239 103.736 34.0857 96.3243 23.9594C93.4432 20.0525 90.1035 16.5054 86.377 13.3943L80.1987 10.5522C83.3992 13.4856 86.2219 16.8064 88.6013 20.4377C95.3587 30.6527 99.265 42.4873 99.9167 54.7177C100.568 66.9482 97.9417 79.1307 92.3082 90.0061" fill="white"/>
</g>
<path d="M57.2129 5.48178C63.5457 15.86 67.2014 27.6488 67.8516 39.7893C68.5017 51.9297 66.1259 64.0415 60.9377 75.0368C55.7494 86.032 47.911 95.5662 38.1268 102.783C28.3427 110 16.9191 114.673 4.88209 116.383C3.52285 116.383 2.16368 116.383 0.804443 116.692V119.411C4.63004 119.955 8.49999 120.12 12.3581 119.905C24.9397 119.217 37.1006 115.137 47.5511 108.097C58.0016 101.057 66.3521 91.3206 71.717 79.9193C77.0819 68.5181 79.2613 55.8773 78.024 43.3377C76.7866 30.7982 72.1785 18.8273 64.6887 8.69456C62.6043 5.85361 60.2678 3.20676 57.7073 0.786255H54.0002C55.1123 2.1455 56.1626 3.62825 57.2129 5.17284" fill="white"/>
<path d="M113.067 89.0717C112.315 91.347 111.428 93.5752 110.41 95.7443C106.254 106.553 99.3887 116.111 90.4733 123.501C81.5579 130.891 70.8919 135.864 59.5 137.943H140.807V48.6652C139.646 53.1027 138.031 57.4089 135.988 61.5161C130.905 72.5582 122.999 82.0634 113.067 89.0717Z" fill="#EA2127"/>
</svg>
