<svg width="59" height="57" viewBox="0 0 59 57" fill="none" xmlns="http://www.w3.org/2000/svg">
<g opacity="0.7">
<path opacity="0.7" d="M28.1554 28.8901C23.1404 29.0803 18.1657 27.9262 13.7467 25.5474C9.32761 23.1686 5.62489 19.6515 3.02205 15.3606C1.91609 13.5967 1.06323 11.6863 0.488434 9.6853V12.2189C1.03709 14.4851 1.88933 16.6669 3.02205 18.705C5.48049 23.2225 9.11049 26.9944 13.5305 29.6242C17.9505 32.2539 22.9973 33.6445 28.1404 33.6497C33.2836 33.6548 38.3332 32.2745 42.7585 29.6536C47.1838 27.0328 50.8214 23.2682 53.2889 18.7556C54.226 17.0049 54.9572 15.1514 55.4678 13.2324V10.5214C54.9426 12.2257 54.2109 13.8593 53.2889 15.3859C50.68 19.677 46.9724 23.1936 42.5494 25.5721C38.1264 27.9506 33.1485 29.1048 28.1301 28.9154" fill="#07509D"/>
</g>
<path d="M28.1549 21.6658C23.1407 21.8506 18.168 20.6943 13.7499 18.316C9.33177 15.9377 5.62828 12.4236 3.02147 8.13633C1.91551 6.37244 1.06265 4.46206 0.487854 2.46106V4.99467C1.04059 7.25961 1.89263 9.44081 3.02147 11.4807C5.48243 16.002 9.1169 19.7761 13.5422 22.4058C17.9675 25.0354 23.0199 26.4233 28.1675 26.4233C33.3152 26.4233 38.3676 25.0354 42.7929 22.4058C47.2182 19.7761 50.8527 16.002 53.3137 11.4807C54.2508 9.72993 54.9819 7.87646 55.4925 5.95742V3.24647C54.9673 4.95078 54.2356 6.58442 53.3137 8.111C50.7008 12.3984 46.9924 15.9121 42.5703 18.2901C38.1483 20.6681 33.1724 21.8246 28.1549 21.6405" fill="#07509D"/>
<g opacity="0.3">
<path opacity="0.3" d="M28.155 36.0078C23.1399 36.198 18.1653 35.0439 13.7462 32.6651C9.32715 30.2863 5.62443 26.7692 3.02159 22.4783C1.91631 20.7231 1.06342 18.8212 0.487976 16.8284V19.362C1.03663 21.6282 1.88887 23.8099 3.02159 25.848C5.48256 30.3693 9.11703 34.1434 13.5423 36.7731C17.9676 39.4027 23.02 40.7906 28.1677 40.7906C33.3153 40.7906 38.3678 39.4027 42.7931 36.7731C47.2184 34.1434 50.8528 30.3693 53.3138 25.848C54.2509 24.0972 54.9821 22.2438 55.4927 20.3247V17.6391C54.9623 19.3334 54.2308 20.9581 53.3138 22.4783C50.7049 26.7694 46.9973 30.286 42.5743 32.6645C38.1513 35.043 33.1734 36.1972 28.155 36.0078Z" fill="#07509D"/>
</g>
<g opacity="0.7">
<path opacity="0.7" d="M31.9052 33.8015C29.928 38.4149 26.7562 42.4175 22.7169 45.3969C18.6776 48.3762 13.9168 50.2246 8.92534 50.7514C6.88062 50.9519 4.81821 50.8752 2.79404 50.5233L5.0996 51.6128C7.36211 52.1027 9.67842 52.2985 11.9911 52.1955C17.1292 51.8984 22.0923 50.2217 26.3579 47.3419C30.6236 44.462 34.034 40.4856 36.2303 35.831C38.4267 31.1764 39.3277 26.0158 38.8386 20.8924C38.3494 15.7689 36.4882 10.8721 33.4508 6.71717C32.2693 5.11503 30.8997 3.66045 29.3716 2.38468L26.838 1.21924C28.1505 2.42215 29.308 3.78388 30.2838 5.27299C33.0548 9.46197 34.6567 14.315 34.9239 19.3305C35.1912 24.3459 34.114 29.3418 31.8039 33.8015" fill="#07509D"/>
</g>
<g opacity="0.3">
<path opacity="0.3" d="M38.3915 36.8706C36.4142 41.4839 33.2425 45.4866 29.2032 48.466C25.1639 51.4454 20.4031 53.2937 15.4116 53.8204C13.3584 54.0202 11.2877 53.9435 9.25494 53.5924L11.5859 54.6819C13.8478 55.1752 16.1656 55.3627 18.4773 55.2393C23.6151 54.9474 28.5789 53.2749 32.8457 50.398C37.1125 47.5212 40.5242 43.5466 42.7212 38.8932C44.9183 34.2397 45.8193 29.0798 45.3293 23.9571C44.8393 18.8345 42.9764 13.9389 39.937 9.7863C38.7555 8.18416 37.386 6.72958 35.8579 5.45381L33.3243 4.28833C34.6367 5.49125 35.7943 6.85301 36.77 8.34212C39.5411 12.5311 41.143 17.3842 41.4102 22.3996C41.6775 27.4151 40.6003 32.4109 38.2901 36.8706" fill="#07509D"/>
</g>
<path d="M23.8983 2.20898C26.4953 6.46487 27.9944 11.2992 28.261 16.2777C28.5276 21.2562 27.5534 26.223 25.4258 30.7319C23.2982 35.2408 20.0838 39.1506 16.0715 42.1101C12.0593 45.0695 7.37469 46.986 2.4386 47.6873C1.88121 47.6873 1.32384 47.6873 0.766449 47.814V48.9288C2.33524 49.1518 3.92222 49.2197 5.50433 49.1315C10.6638 48.8493 15.6507 47.1761 19.9362 44.2893C24.2217 41.4024 27.6461 37.4096 29.8461 32.7342C32.0462 28.0588 32.9399 22.8751 32.4325 17.7329C31.925 12.5907 30.0354 7.6817 26.964 3.52647C26.1092 2.36146 25.1511 1.27604 24.101 0.283447H22.5809C23.0369 0.840842 23.4676 1.44889 23.8983 2.08229" fill="#07509D"/>
<path d="M46.8027 36.4874C46.4946 37.4205 46.1308 38.3342 45.7133 39.2237C44.0091 43.6561 41.1937 47.5757 37.5377 50.6061C33.8817 53.6366 29.5078 55.6759 24.8362 56.5283H58.1786V19.9176C57.7022 21.7373 57.04 23.5032 56.2024 25.1875C54.118 29.7156 50.8756 33.6135 46.8027 36.4874Z" fill="#EA2127"/>
</svg>
