<svg width="238" height="280" viewBox="0 0 238 280" fill="none" xmlns="http://www.w3.org/2000/svg">
<path d="M0 240.654H3.92211C7.19055 240.654 9.47845 241.471 10.7858 242.942C12.0932 244.413 12.7469 246.21 12.7469 248.335C12.7469 249.806 12.42 251.113 11.9298 252.257C11.4395 253.401 10.459 254.545 9.15161 255.199C7.84423 256.016 6.21003 256.343 4.08555 256.343H0.163407V240.654H0ZM4.24895 254.381C6.21001 254.381 7.68081 253.891 8.66134 252.747C9.64187 251.603 9.96872 250.296 9.96872 248.498C9.96872 246.864 9.47845 245.557 8.66134 244.413C7.68081 243.432 6.21001 242.779 4.24895 242.779H2.45133V254.381H4.24895Z" fill="#0A509F" stroke="#0B519E" stroke-width="0.253058" stroke-miterlimit="10"/>
<path d="M14.8713 240.654H21.8985V242.779H17.3227V247.191H21.0814V249.315H17.3227V254.381H22.7156V256.506H14.8713V240.654Z" fill="#0A509F" stroke="#0B519E" stroke-width="0.253058" stroke-miterlimit="10"/>
<path d="M25.1664 240.654H27.6177V254.218H32.1935V256.343H25.1664V240.654Z" fill="#0A509F" stroke="#0B519E" stroke-width="0.253058" stroke-miterlimit="10"/>
<path d="M34.9718 240.654H37.4231V256.343H34.9718V240.654Z" fill="#0A509F" stroke="#0B519E" stroke-width="0.253058" stroke-miterlimit="10"/>
<path d="M39.0591 240.654H41.8372L46.5765 251.44L51.4792 240.654H54.2573L46.9033 256.343H46.5765L39.0591 240.654Z" fill="#0A509F" stroke="#0B519E" stroke-width="0.253058" stroke-miterlimit="10"/>
<path d="M55.5624 240.654H62.5895V242.779H58.0137V247.191H61.7724V249.315H58.0137V254.381H63.4066V256.506H55.5624V240.654Z" fill="#0A509F" stroke="#0B519E" stroke-width="0.253058" stroke-miterlimit="10"/>
<path d="M73.7021 256.507L70.4337 250.624C69.78 250.624 69.1263 250.624 68.636 250.624H67.9823V256.507H65.531V240.819H69.1263C70.9239 240.819 72.5581 241.145 73.7021 241.963C74.846 242.78 75.4997 243.924 75.4997 245.558C75.4997 246.538 75.1729 247.519 74.6826 248.336C74.1924 249.153 73.3752 249.643 72.3947 250.134L76.1534 256.671H73.7021V256.507ZM69.6166 248.663C71.0873 248.663 72.0679 248.336 72.5581 247.682C73.0484 247.029 73.3753 246.375 73.3753 245.558C73.3753 243.76 72.0679 242.78 69.6166 242.78H68.1458V248.663H69.6166Z" fill="#0A509F" stroke="#0B519E" stroke-width="0.253058" stroke-miterlimit="10"/>
<path d="M79.4222 240.654H81.8736V256.343H79.4222V240.654Z" fill="#0A509F" stroke="#0B519E" stroke-width="0.253058" stroke-miterlimit="10"/>
<path d="M87.9193 246.211V247.845V256.343H85.468V240.491H85.7949L95.2733 250.787L95.1099 248.989V240.491H97.5612V256.18H97.2344L87.9193 246.211Z" fill="#0A509F" stroke="#0B519E" stroke-width="0.253058" stroke-miterlimit="10"/>
<path d="M104.264 255.526C102.957 254.872 101.976 253.892 101.323 252.584C100.669 251.277 100.342 249.97 100.342 248.335C100.342 246.865 100.669 245.394 101.486 244.25C102.14 243.106 103.12 242.125 104.428 241.472C105.735 240.818 107.206 240.491 108.677 240.491C109.494 240.491 110.311 240.491 110.964 240.655C111.618 240.818 112.272 240.981 112.599 241.145C113.089 241.308 113.416 241.472 113.416 241.635L112.435 243.596C111.455 242.943 110.147 242.452 108.513 242.452C107.369 242.452 106.389 242.779 105.408 243.269C104.591 243.76 103.937 244.413 103.447 245.23C102.957 246.048 102.793 247.028 102.793 248.172C102.793 249.316 102.957 250.46 103.447 251.44C103.937 252.421 104.591 253.075 105.408 253.565C106.225 254.055 107.206 254.382 108.35 254.382C109.003 254.382 109.657 254.219 110.311 254.055C110.964 253.892 111.455 253.565 111.945 253.238V250.133H108.677V247.845H114.396V254.055C113.906 254.709 113.089 255.199 111.945 255.689C110.964 256.18 109.657 256.343 108.35 256.343C106.879 256.67 105.572 256.343 104.264 255.526Z" fill="#0A509F" stroke="#0B519E" stroke-width="0.253058" stroke-miterlimit="10"/>
<path d="M122.566 240.654H129.593V242.779H125.017V247.191H128.776V249.315H125.017V254.381H130.41V256.506H122.566V240.654Z" fill="#0A509F" stroke="#0B519E" stroke-width="0.253058" stroke-miterlimit="10"/>
<path d="M136.294 248.171L131.718 240.654H134.66L137.765 246.21L140.87 240.654H143.811L139.236 248.171L144.302 256.506H141.36L137.765 250.296L134.333 256.506H131.555L136.294 248.171Z" fill="#0A509F" stroke="#0B519E" stroke-width="0.253058" stroke-miterlimit="10"/>
<path d="M149.041 255.526C147.897 254.872 146.917 253.892 146.263 252.584C145.609 251.44 145.282 249.97 145.282 248.499C145.282 246.865 145.609 245.557 146.263 244.25C146.917 242.942 147.897 242.125 149.205 241.308C150.512 240.654 151.819 240.328 153.454 240.328C154.107 240.328 154.761 240.328 155.415 240.491C156.068 240.654 156.559 240.818 156.885 240.981C157.212 241.145 157.539 241.308 157.703 241.472L156.559 243.596C155.741 242.779 154.434 242.452 153.127 242.452C152.146 242.452 151.166 242.616 150.349 243.106C149.531 243.596 148.878 244.25 148.387 245.23C147.897 246.047 147.734 247.191 147.734 248.335C147.734 249.479 147.897 250.46 148.387 251.277C148.878 252.094 149.368 252.911 150.185 253.401C151.002 253.892 151.983 254.218 153.127 254.218C154.434 254.218 155.578 253.892 156.885 253.075L157.539 255.036C157.212 255.362 156.559 255.526 155.741 255.853C154.924 256.18 153.944 256.18 153.127 256.18C151.656 256.67 150.185 256.18 149.041 255.526Z" fill="#0A509F" stroke="#0B519E" stroke-width="0.253058" stroke-miterlimit="10"/>
<path d="M160.152 240.654H167.179V242.779H162.604V247.191H166.362V249.315H162.604V254.381H167.997V256.506H160.152V240.654Z" fill="#0A509F" stroke="#0B519E" stroke-width="0.253058" stroke-miterlimit="10"/>
<path d="M170.449 240.654H172.901V254.218H177.476V256.343H170.449V240.654Z" fill="#0A509F" stroke="#0B519E" stroke-width="0.253058" stroke-miterlimit="10"/>
<path d="M179.926 240.654H182.378V254.218H186.954V256.343H179.926V240.654Z" fill="#0A509F" stroke="#0B519E" stroke-width="0.253058" stroke-miterlimit="10"/>
<path d="M189.406 240.654H196.433V242.779H191.858V247.191H195.616V249.315H191.858V254.381H197.251V256.506H189.406V240.654Z" fill="#0A509F" stroke="#0B519E" stroke-width="0.253058" stroke-miterlimit="10"/>
<path d="M201.988 246.211V247.845V256.343H199.537V240.491H199.864L209.342 250.787L209.179 248.989V240.491H211.63V256.18H211.303L201.988 246.211Z" fill="#0A509F" stroke="#0B519E" stroke-width="0.253058" stroke-miterlimit="10"/>
<path d="M218.005 255.526C216.861 254.872 215.88 253.892 215.227 252.584C214.573 251.44 214.246 249.97 214.246 248.499C214.246 246.865 214.573 245.557 215.227 244.25C215.88 242.942 216.861 242.125 218.168 241.308C219.476 240.654 220.783 240.328 222.417 240.328C223.071 240.328 223.725 240.328 224.378 240.491C225.032 240.654 225.522 240.818 225.849 240.981C226.176 241.145 226.503 241.308 226.666 241.472L225.522 243.596C224.705 242.779 223.398 242.452 222.09 242.452C221.11 242.452 220.129 242.616 219.312 243.106C218.495 243.596 217.841 244.25 217.351 245.23C216.861 246.047 216.698 247.191 216.698 248.335C216.698 249.479 216.861 250.46 217.351 251.277C217.841 252.094 218.332 252.911 219.149 253.401C219.966 253.892 220.946 254.218 222.09 254.218C223.398 254.218 224.542 253.892 225.849 253.075L226.503 255.036C226.176 255.362 225.522 255.526 224.705 255.853C223.888 256.18 222.908 256.18 222.09 256.18C220.783 256.67 219.312 256.18 218.005 255.526Z" fill="#0A509F" stroke="#0B519E" stroke-width="0.253058" stroke-miterlimit="10"/>
<path d="M229.281 240.654H236.308V242.779H231.732V247.191H235.491V249.315H231.732V254.381H237.125V256.506H229.281V240.654Z" fill="#0A509F" stroke="#0B519E" stroke-width="0.253058" stroke-miterlimit="10"/>
<path d="M48.2109 278.894C47.3937 278.568 46.9035 278.241 46.4132 277.914L47.5572 275.953C47.884 276.28 48.3743 276.443 48.8645 276.77C49.5182 277.097 50.0085 277.26 50.6622 277.26C51.3159 277.26 51.9695 277.097 52.4598 276.77C52.9501 276.443 53.1135 275.953 53.1135 275.299C53.1135 274.809 52.9501 274.482 52.7866 274.155C52.4598 273.828 52.2964 273.501 51.8061 273.338C51.4793 273.175 50.989 272.848 50.3353 272.521C49.5182 272.194 49.0279 271.867 48.7011 271.704C47.3937 270.887 46.74 269.579 46.74 267.945C46.74 266.638 47.2303 265.657 48.0474 265.003C48.8645 264.35 50.0085 264.023 51.3159 264.023C52.7867 264.023 53.9306 264.35 54.9111 265.167L53.7672 266.965C53.4403 266.638 53.1135 266.474 52.6232 266.311C52.133 266.147 51.6427 265.984 51.1524 265.984C50.4987 265.984 50.0085 266.147 49.5182 266.474C49.1914 266.801 48.8645 267.291 48.8645 267.782C48.8645 268.272 49.028 268.599 49.1914 268.926C49.5182 269.252 49.6816 269.579 50.1719 269.743C50.4988 270.07 50.989 270.233 51.6427 270.723C52.2964 271.05 52.7867 271.377 53.1135 271.54C53.4404 271.704 53.7672 272.031 54.094 272.194C54.4209 272.521 54.7477 273.011 55.0746 273.501C55.4014 273.992 55.4014 274.482 55.4014 275.136C55.4014 276.116 55.238 276.77 54.7477 277.424C54.2575 278.077 53.7672 278.568 52.9501 278.894C52.2964 279.221 51.3159 279.385 50.4988 279.385C49.8451 279.385 49.028 279.221 48.2109 278.894Z" fill="#0A509F"/>
<path d="M62.7559 264.023H65.0438V279.058H62.7559V264.023Z" fill="#0A509F"/>
<path d="M75.1757 269.416V271.05V279.221H72.8878V264.187H73.2147L82.0395 274.155L81.876 272.358V264.187H84.1639V279.221H83.8371L75.1757 269.416Z" fill="#0A509F"/>
<path d="M94.6223 278.24C93.4783 277.587 92.6612 276.606 92.0075 275.462C91.3538 274.318 91.027 273.011 91.027 271.54C91.027 270.069 91.3538 268.762 92.0075 267.618C92.6612 266.474 93.6417 265.493 94.7857 264.84C95.9296 264.186 97.237 263.859 98.7078 263.859C99.3615 263.859 100.015 263.859 100.669 264.023C101.323 264.186 101.813 264.35 102.14 264.513C102.467 264.676 102.793 264.84 102.957 265.003L101.976 267.128C101.159 266.311 100.015 265.984 98.7078 265.984C97.7273 265.984 96.9102 266.147 96.093 266.637C95.2759 267.128 94.7857 267.781 94.2954 268.598C93.8051 269.416 93.6417 270.396 93.6417 271.54C93.6417 272.521 93.8051 273.501 94.2954 274.318C94.6223 275.135 95.2759 275.789 95.9296 276.279C96.7467 276.77 97.5638 277.096 98.5444 277.096C99.6883 277.096 100.832 276.77 101.976 276.116L102.63 278.077C102.303 278.404 101.813 278.567 100.996 278.894C100.179 279.221 99.3615 279.221 98.5444 279.221C97.237 279.221 95.7662 278.894 94.6223 278.24Z" fill="#0A509F"/>
<path d="M109.656 264.023H116.193V265.984H111.781V270.233H115.212V272.357H111.781V277.26H116.847V279.221H109.493V264.023H109.656Z" fill="#0A509F"/>
<path d="M134.006 264.023L136.294 263.369V278.894H134.006V264.023Z" fill="#0A509F"/>
<path d="M150.676 274.155C150.676 273.991 150.839 273.828 151.166 273.338C151.493 272.847 151.656 272.684 151.82 272.521C151.329 273.011 150.512 273.174 149.695 273.174C148.715 273.174 148.061 273.011 147.244 272.521C146.59 272.03 145.936 271.54 145.61 270.723C145.283 269.906 144.956 269.089 144.956 268.272C144.956 267.291 145.119 266.474 145.61 265.657C146.1 264.84 146.754 264.35 147.571 263.859C148.388 263.369 149.368 263.206 150.349 263.206C151.329 263.206 152.146 263.369 152.964 263.859C153.781 264.186 154.271 264.84 154.761 265.657C155.252 266.474 155.415 267.291 155.415 268.272C155.415 268.925 155.252 269.579 155.088 270.233C154.925 270.886 154.434 271.867 153.781 273.011C153.127 274.318 152.146 276.116 150.676 278.567H148.061L150.676 274.155ZM152.146 270.56C152.637 270.069 152.964 269.416 152.964 268.435C152.964 267.455 152.637 266.801 152.146 266.311C151.656 265.82 151.003 265.493 150.185 265.493C149.368 265.493 148.551 265.82 148.061 266.311C147.571 266.801 147.244 267.618 147.244 268.435C147.244 269.252 147.571 270.069 148.061 270.56C148.551 271.05 149.205 271.377 150.022 271.377C151.003 271.213 151.656 271.05 152.146 270.56Z" fill="#0A509F"/>
<path d="M168.325 274.155C168.325 273.991 168.488 273.828 168.815 273.338C169.142 272.847 169.305 272.684 169.469 272.521C168.979 273.011 168.161 273.174 167.344 273.174C166.364 273.174 165.71 273.011 164.893 272.521C164.239 272.03 163.586 271.54 163.259 270.723C162.932 269.906 162.605 269.089 162.605 268.272C162.605 267.291 162.769 266.474 163.259 265.657C163.749 264.84 164.403 264.35 165.22 263.859C166.037 263.369 167.017 263.206 167.998 263.206C168.979 263.206 169.796 263.369 170.613 263.859C171.43 264.186 171.92 264.84 172.41 265.657C172.901 266.474 173.064 267.291 173.064 268.272C173.064 268.925 172.901 269.579 172.737 270.233C172.574 270.886 172.084 271.867 171.43 273.011C170.776 274.318 169.796 276.116 168.325 278.567H165.71L168.325 274.155ZM169.796 270.56C170.286 270.069 170.613 269.416 170.613 268.435C170.613 267.455 170.286 266.801 169.796 266.311C169.305 265.82 168.652 265.493 167.835 265.493C167.017 265.493 166.2 265.82 165.71 266.311C165.22 266.801 164.893 267.618 164.893 268.435C164.893 269.252 165.22 270.069 165.71 270.56C166.2 271.05 166.854 271.377 167.671 271.377C168.652 271.213 169.305 271.05 169.796 270.56Z" fill="#0A509F"/>
<path d="M28.7626 1.73026L30.3968 1.23999V11.8624H28.7626V1.73026Z" fill="#454242"/>
<path d="M49.5173 8.75767C49.5173 8.75767 49.6808 8.59424 49.8442 8.2674C50.0076 7.94056 50.171 7.77714 50.171 7.61372C49.8442 7.94057 49.3539 8.10397 48.7002 8.10397C48.0465 8.10397 47.5563 7.94057 47.066 7.61372C46.5757 7.28688 46.2489 6.96001 45.9221 6.46975C45.5952 5.97948 45.5952 5.3258 45.5952 4.83553C45.5952 4.18184 45.7586 3.52817 46.0855 3.0379C46.4123 2.54764 46.9026 2.05738 47.3929 1.89396C47.8831 1.56711 48.5368 1.40369 49.3539 1.40369C50.0076 1.40369 50.4979 1.56711 51.1515 1.89396C51.6418 2.2208 52.1321 2.54764 52.4589 3.0379C52.7858 3.52817 52.9492 4.18184 52.9492 4.83553C52.9492 5.3258 52.9492 5.65264 52.7858 6.14291C52.6223 6.63318 52.4589 7.28686 51.9687 8.10397C51.4784 8.92108 50.8247 10.2285 49.8442 11.8627H48.0465L49.5173 8.75767ZM50.4979 6.14291C50.8247 5.81607 50.9881 5.32581 50.9881 4.67212C50.9881 4.01844 50.8247 3.52816 50.4979 3.20131C50.171 2.87447 49.6808 2.71107 49.1905 2.71107C48.5368 2.71107 48.0465 2.87447 47.7197 3.20131C47.3929 3.52816 47.2294 4.01844 47.2294 4.67212C47.2294 5.32581 47.3929 5.81607 47.7197 6.14291C48.0465 6.46975 48.5368 6.63318 49.0271 6.63318C49.6808 6.7966 50.171 6.63318 50.4979 6.14291Z" fill="#454242"/>
<path d="M70.9258 8.75767C70.9258 8.75767 71.0892 8.59424 71.2526 8.2674C71.416 7.94056 71.5795 7.77714 71.5795 7.61372C71.2526 7.94057 70.7624 8.10397 70.1087 8.10397C69.455 8.10397 68.9647 7.94057 68.4744 7.61372C67.9842 7.28688 67.6573 6.96001 67.3305 6.46975C67.0037 5.97948 67.0037 5.3258 67.0037 4.83553C67.0037 4.18184 67.1671 3.52817 67.4939 3.0379C67.8208 2.54764 68.311 2.05738 68.8013 1.89396C69.2916 1.56711 69.9452 1.40369 70.7623 1.40369C71.416 1.40369 71.9063 1.56711 72.56 1.89396C73.0503 2.2208 73.5405 2.54764 73.8674 3.0379C74.1942 3.52817 74.3576 4.18184 74.3576 4.83553C74.3576 5.3258 74.3576 5.65264 74.1942 6.14291C74.0308 6.63318 73.8674 7.28686 73.3771 8.10397C72.8868 8.92108 72.2331 10.2285 71.2526 11.8627H69.455L70.9258 8.75767ZM71.9063 6.14291C72.2332 5.81607 72.3966 5.32581 72.3966 4.67212C72.3966 4.01844 72.2332 3.52816 71.9063 3.20131C71.5795 2.87447 71.0892 2.71107 70.5989 2.71107C69.9453 2.71107 69.455 2.87447 69.1281 3.20131C68.8013 3.52816 68.6379 4.01844 68.6379 4.67212C68.6379 5.32581 68.8013 5.81607 69.1281 6.14291C69.455 6.46975 69.9452 6.63318 70.4355 6.63318C71.0892 6.7966 71.5795 6.63318 71.9063 6.14291Z" fill="#454242"/>
<path d="M29.9066 27.5509C30.3968 26.8972 30.7237 26.4069 31.0505 25.9166C31.3774 25.4264 31.5408 24.9361 31.5408 24.4458C31.5408 23.9556 31.3774 23.4653 31.0505 23.3019C30.7237 23.1385 30.3969 22.8116 29.7432 22.8116C29.2529 22.8116 28.7626 22.975 28.5992 23.3019C28.2724 23.6287 28.109 23.9556 27.7821 24.2824L26.4747 23.6287C26.8016 22.975 27.2918 22.4848 27.7821 21.9945C28.2724 21.5042 28.926 21.3408 29.9066 21.3408C30.8871 21.3408 31.7042 21.6677 32.3579 22.1579C32.8482 22.6482 33.175 23.4653 33.175 24.2824C33.175 25.4264 32.6847 26.7338 31.5408 28.0411L29.5797 30.4925H33.6653V31.9632H26.6381L29.9066 27.5509Z" fill="#454242"/>
<path d="M47.7203 30.6559C47.0666 29.6753 46.7397 28.368 46.7397 26.7337C46.7397 25.0995 47.0666 23.7921 47.5569 22.8116C48.2105 21.8311 49.0277 21.3408 50.4985 21.3408C52.9498 21.3408 54.2572 23.1385 54.2572 26.7337C54.2572 28.368 53.9303 29.6753 53.2766 30.6559C52.6229 31.6364 51.6424 32.1267 50.4985 32.1267C49.1911 32.1267 48.374 31.6364 47.7203 30.6559ZM52.1327 29.6753C52.4595 28.8582 52.6229 28.0411 52.6229 26.8972C52.6229 25.7532 52.4595 24.7727 52.1327 23.9556C51.8058 23.3019 51.3156 22.975 50.4985 22.975C49.6813 22.975 49.1911 23.3019 48.8642 23.9556C48.5374 24.6093 48.374 25.5898 48.374 26.8972C48.374 29.5119 49.0277 30.8193 50.4985 30.8193C51.3156 30.6559 51.8058 30.329 52.1327 29.6753Z" fill="#454242"/>
<path d="M71.0886 27.5509C71.5789 26.8972 71.9057 26.4069 72.2326 25.9166C72.5594 25.4264 72.7228 24.9361 72.7228 24.4458C72.7228 23.9556 72.5594 23.4653 72.2326 23.3019C71.9057 23.1385 71.5789 22.8116 70.9252 22.8116C70.4349 22.8116 69.9446 22.975 69.7812 23.3019C69.4544 23.6287 69.291 23.9556 68.9641 24.2824L67.6567 23.6287C67.9836 22.975 68.4739 22.4848 68.9641 21.9945C69.4544 21.5042 70.1081 21.3408 71.0886 21.3408C72.0691 21.3408 72.8862 21.6677 73.5399 22.1579C74.0302 22.6482 74.357 23.4653 74.357 24.2824C74.357 25.4264 73.8668 26.7338 72.7228 28.0411L70.7617 30.4925H74.8473V31.9632H67.8202L71.0886 27.5509Z" fill="#454242"/>
<path d="M91.5161 27.5509C92.0064 26.8972 92.3332 26.4069 92.66 25.9166C92.9869 25.4264 93.1503 24.9361 93.1503 24.4458C93.1503 23.9556 92.9869 23.4653 92.66 23.3019C92.3332 22.975 92.0064 22.8116 91.3527 22.8116C90.8624 22.8116 90.3721 22.975 90.2087 23.3019C89.8819 23.6287 89.7185 23.9556 89.3916 24.2824L88.0842 23.6287C88.4111 22.975 88.9013 22.4848 89.3916 21.9945C89.8819 21.5042 90.5356 21.3408 91.5161 21.3408C92.4966 21.3408 93.3137 21.6677 93.9674 22.1579C94.4577 22.6482 94.7845 23.4653 94.7845 24.2824C94.7845 25.4264 94.2943 26.7338 93.1503 28.0411L91.1892 30.4925H95.2748V31.9632H88.0842L91.5161 27.5509Z" fill="#454242"/>
<path d="M96.9086 132.305C95.2744 134.266 92.9865 137.044 89.8815 140.803C86.7765 144.561 82.8544 149.137 77.9517 154.694L24.6762 214.996H105.08L126.161 225.619H1.14343L92.1694 120.375C99.5234 109.916 103.119 99.1301 103.119 87.854C103.119 76.9047 98.7063 67.5897 90.0449 60.0723C81.3835 52.5549 71.2514 48.9596 59.8119 48.9596C45.7576 48.9596 34.8083 53.5354 26.8007 62.5236C21.898 67.9165 18.6296 74.6168 16.6685 82.4611H4.90214C6.04609 73.4729 10.6219 64.4847 18.4661 55.6599C28.9251 44.2204 42.6526 38.5006 59.8119 38.5006C74.5198 38.5006 87.2667 43.0764 97.7257 52.228C108.348 61.2162 113.578 73.146 113.578 87.854C113.905 103.052 108.185 117.76 96.9086 132.305Z" fill="#0A509F"/>
<path d="M172.575 211.565C173.882 210.911 174.536 210.421 175.844 209.767C178.295 211.074 179.439 211.728 182.054 213.035C181.89 210.257 181.727 208.786 181.4 206.008C182.544 205.191 183.197 204.701 184.341 203.884C184.995 207.479 185.485 211.238 185.649 214.833C187.283 217.284 188.1 218.428 189.898 220.88C188.59 221.86 187.773 222.35 186.466 223.168C184.832 220.716 184.178 219.409 182.544 216.958C178.949 215.323 175.68 213.526 172.575 211.565Z" fill="#0A509F"/>
<path d="M188.101 200.451C191.043 197.837 192.35 196.529 194.801 193.588C195.782 194.405 196.272 194.895 197.253 195.712C195.619 197.673 194.638 198.654 192.84 200.451C193.658 201.268 194.148 201.759 194.965 202.576C196.926 200.615 197.907 199.634 199.541 197.673C200.521 198.49 201.012 198.817 201.829 199.634C200.031 201.759 199.05 202.739 197.089 204.7L200.194 207.805C202.319 205.681 203.299 204.7 205.261 202.412C206.241 203.229 206.731 203.72 207.712 204.537C205.261 207.478 202.482 210.257 199.541 212.871C195.782 208.786 192.023 204.537 188.101 200.451Z" fill="#0A509F"/>
<path d="M201.5 184.763C202.317 183.619 202.644 183.129 203.297 181.821C209.344 182.802 215.554 183.292 221.764 183.292C220.947 184.763 220.62 185.58 219.803 187.051C218.332 187.051 217.515 186.887 215.881 186.724C214.247 189.665 213.266 191.136 211.469 193.751C212.286 195.058 212.612 195.712 213.43 197.183C212.449 198.49 211.959 199.307 210.978 200.615C208.2 195.222 205.095 189.829 201.5 184.763ZM206.239 185.743C207.71 187.868 208.363 188.848 209.671 191.136C210.815 189.339 211.469 188.521 212.449 186.56C209.998 186.234 208.69 186.07 206.239 185.743Z" fill="#0A509F"/>
<path d="M208.689 171.199C209.179 169.891 209.506 169.238 209.996 167.93C210.65 166.133 211.304 164.825 211.794 164.171C212.284 163.518 213.101 163.028 213.918 162.701C214.736 162.374 215.716 162.374 216.86 162.701C218.004 163.028 218.821 163.518 219.311 164.335C219.802 165.152 220.128 166.133 220.128 167.44C223.56 166.623 225.358 165.969 228.626 164.825C228.136 166.623 227.973 167.44 227.482 169.074C224.214 170.055 222.58 170.545 219.148 171.199C219.148 171.362 219.148 171.362 218.985 171.525C221.763 172.506 223.07 172.996 225.685 173.977C225.195 175.448 224.868 176.265 224.214 177.736C219.148 175.448 213.918 173.323 208.689 171.199ZM216.043 170.218C216.206 169.728 216.206 169.564 216.37 169.074C216.697 167.93 216.86 167.113 216.697 166.623C216.533 166.133 216.206 165.806 215.553 165.642C215.226 165.479 214.899 165.479 214.572 165.642C214.245 165.806 213.918 165.969 213.755 166.296C213.592 166.623 213.265 167.113 212.938 168.094C212.775 168.42 212.775 168.584 212.611 169.074C214.082 169.564 214.736 169.728 216.043 170.218Z" fill="#0A509F"/>
<path d="M216.859 146.032C217.676 147.176 218.003 147.666 218.656 148.81C217.349 149.627 216.695 150.444 216.532 151.425C216.532 151.915 216.532 152.242 216.695 152.569C216.859 152.896 217.186 153.059 217.349 153.059C217.676 153.059 217.839 153.059 218.166 152.896C218.493 152.732 219.474 151.915 220.618 150.444C221.761 149.137 222.579 148.32 222.742 147.993C223.396 147.339 224.213 146.849 224.703 146.522C225.357 146.195 226.01 146.032 226.664 146.195C227.971 146.359 229.115 147.013 229.933 148.32C230.75 149.627 231.076 151.261 230.75 153.223C230.586 154.693 230.096 156.001 229.279 157.145C228.462 158.125 227.481 158.942 226.01 159.433C225.684 157.962 225.52 157.308 225.03 155.837C226.664 155.184 227.645 154.04 227.808 152.732C227.971 152.079 227.808 151.425 227.481 150.935C227.154 150.444 226.828 150.118 226.501 150.118C226.174 150.118 225.684 150.281 225.357 150.444C224.866 150.771 224.213 151.425 223.396 152.405C221.598 154.366 220.291 155.51 219.31 156.001C218.33 156.491 217.513 156.654 216.695 156.491C215.551 156.328 214.734 155.51 213.917 154.53C213.264 153.386 213.1 152.242 213.264 150.935C213.427 150.118 213.754 149.3 214.081 148.483C214.898 147.83 215.715 147.013 216.859 146.032Z" fill="#0A509F"/>
<path d="M104.752 181.985C105.079 180.678 103.445 177.083 103.118 175.612C101.974 169.892 101.484 164.009 101.974 158.289C103.608 135.737 119.951 120.539 135.639 107.628C150.347 95.5351 166.526 85.2395 179.926 71.3487C189.078 61.8702 196.595 50.7575 201.008 38.0106C201.008 37.8472 201.171 37.5204 201.171 37.3569C201.171 37.3569 216.533 75.4342 174.043 107.301C146.588 127.893 113.25 143.908 104.752 181.985Z" fill="#0A509F"/>
<g opacity="0.7">
<path opacity="0.7" d="M117.498 206.498C108.51 191.463 118.315 167.931 128.284 156.328C139.396 143.744 154.104 135.737 167.668 126.748C178.454 119.558 189.24 111.387 196.431 99.9472C197.901 97.4959 204.929 86.7101 203.621 83.9319C207.216 91.9396 206.726 102.562 204.275 110.896C197.248 134.919 173.878 146.686 155.575 159.269C138.743 171.036 123.871 185.744 117.498 206.498Z" fill="#0A509F"/>
</g>
<g opacity="0.3">
<path opacity="0.3" d="M130.573 226.108C130.247 224.965 129.593 223.657 129.43 222.513C128.449 218.918 128.286 214.996 128.449 211.237C129.103 201.922 133.515 193.097 139.398 186.234C150.838 172.833 167.017 164.825 181.234 155.347C186.137 152.078 190.876 148.483 194.798 143.907C196.923 141.456 198.884 138.841 200.518 136.063C201.499 134.592 206.401 127.565 205.748 125.931C208.689 133.775 207.382 143.58 204.604 151.098C194.635 177.572 166.199 184.436 147.243 200.942C143.484 204.21 140.052 207.969 137.11 212.381C134.332 216.467 132.371 221.696 130.573 226.108Z" fill="#0A509F"/>
</g>
<path d="M163.26 82.9512C166.529 80.4999 171.595 76.2509 175.353 71.5117C173.719 71.0214 172.085 70.6945 170.287 70.3677C155.579 67.5895 140.381 68.5701 125.673 70.6945C126 68.8969 126.163 68.4066 126.654 66.609C130.739 48.9594 134.825 31.3099 139.074 13.6603H215.555V0.75H128.942C125.346 14.4774 121.914 28.2049 118.319 41.9323L110.802 71.0214C109.494 76.0875 106.716 82.4609 106.716 87.6904C107.697 87.527 108.677 87.2002 109.658 87.0367C126.654 82.4609 145.611 80.0096 163.26 82.9512Z" fill="#E8262A"/>
<path d="M126.326 212.708C120.77 210.911 115.704 208.296 111.292 205.027C103.121 198.981 95.93 189.666 89.8834 177.246L77.9536 181.985C88.0858 206.171 104.918 221.206 128.451 226.762C125.673 221.696 125.836 215.977 126.326 212.708Z" fill="#E8262A"/>
<path d="M218.334 139.005C222.256 136.881 227.159 136.717 231.244 137.207C229.61 118.904 222.42 103.706 210 91.4492C210.326 95.8616 210.49 103.052 208.039 109.752C213.922 118.087 217.354 127.892 218.334 139.005Z" fill="#E8262A"/>
<path d="M164.892 215.159C160.479 215.976 156.067 216.303 151.328 216.303C146.588 216.303 142.176 215.976 137.927 215.323C135.149 219.245 133.351 224.801 132.698 227.579C138.581 228.723 144.791 229.213 151.328 229.213C157.701 229.213 163.584 228.723 169.304 227.579C165.872 223.494 165.055 218.264 164.892 215.159Z" fill="#E8262A"/>
<path d="M90.2084 11.5356C89.7182 11.2087 89.2279 10.8819 89.0645 10.3916C88.7376 9.90136 88.5742 9.24766 88.5742 8.59397C88.5742 8.10371 88.5742 7.61345 88.7376 7.12319C88.901 6.63292 89.2279 5.97924 89.7182 5.16213C90.2084 4.34502 90.8621 3.03763 92.0061 1.23999L93.3134 2.0571C92.4963 3.36447 91.6792 4.50844 91.189 5.48897C91.189 5.48897 91.189 5.65237 91.0255 5.65237C91.0255 5.65237 91.0255 5.81581 90.8621 5.81581C91.0255 5.65238 91.189 5.65239 91.5158 5.48897C91.6792 5.48897 92.0061 5.32554 92.3329 5.32554C92.9866 5.32554 93.4769 5.48896 93.9671 5.81581C94.4574 6.14265 94.7842 6.46949 95.1111 6.95975C95.4379 7.45002 95.4379 7.9403 95.4379 8.43057C95.4379 9.08425 95.2745 9.73792 94.9477 10.2282C94.6208 10.7185 94.294 11.2087 93.6403 11.3721C93.15 11.699 92.4963 11.699 91.8427 11.699C91.189 11.8624 90.6987 11.699 90.2084 11.5356ZM93.3134 10.0648C93.6403 9.73794 93.8037 9.24766 93.8037 8.59397C93.8037 7.94028 93.6403 7.45003 93.3134 7.12319C92.9866 6.79634 92.4963 6.63292 92.0061 6.63292C91.3524 6.63292 91.0255 6.79634 90.5353 7.12319C90.2084 7.45003 90.045 7.94028 90.045 8.59397C90.045 9.08424 90.2084 9.57451 90.5353 9.90135C90.8621 10.2282 91.3524 10.3916 91.8427 10.3916C92.4963 10.555 92.9866 10.3916 93.3134 10.0648Z" fill="#454242"/>
<path d="M180.744 278.077C180.091 277.75 179.437 277.096 178.947 276.442C178.456 275.789 178.293 274.808 178.293 273.991C178.293 273.337 178.456 272.684 178.62 272.03C178.783 271.376 179.273 270.396 179.927 269.252C180.581 267.945 181.725 266.147 183.196 263.696L184.993 264.84C183.686 266.801 182.705 268.435 182.052 269.579C182.052 269.742 181.888 269.742 181.888 269.906C181.888 270.069 181.725 270.069 181.725 270.069C181.888 269.906 182.215 269.742 182.542 269.579C182.869 269.415 183.359 269.415 183.686 269.415C184.503 269.415 185.32 269.579 185.974 270.069C186.627 270.559 187.118 271.05 187.445 271.703C187.771 272.357 187.935 273.174 187.935 273.828C187.935 274.808 187.771 275.789 187.281 276.442C186.791 277.26 186.301 277.75 185.484 278.077C184.666 278.404 183.849 278.73 182.869 278.73C182.215 278.73 181.398 278.567 180.744 278.077ZM185.157 275.952C185.647 275.462 185.81 274.808 185.81 273.991C185.81 273.174 185.647 272.52 185.157 272.03C184.666 271.54 184.013 271.213 183.359 271.213C182.542 271.213 181.888 271.54 181.398 272.03C180.908 272.52 180.581 273.174 180.581 274.155C180.581 274.972 180.908 275.625 181.398 276.116C181.888 276.606 182.542 276.933 183.359 276.933C184.176 276.769 184.666 276.442 185.157 275.952Z" fill="#0A509F"/>
</svg>
