<svg width="31" height="25" viewBox="0 0 31 25" fill="none" xmlns="http://www.w3.org/2000/svg">
<path d="M27.6079 21.0947C25.5107 23.3683 22.3373 24.5208 18.1773 24.5208L16.6825 24.5208L16.6825 20.3069L17.8843 20.0663C19.9322 19.6567 21.3567 18.851 22.1191 17.6686C22.5168 17.0317 22.7424 16.3023 22.7738 15.552L18.1773 15.552C17.7808 15.552 17.4006 15.3945 17.1203 15.1142C16.84 14.8339 16.6825 14.4537 16.6825 14.0572L16.6825 3.59367C16.6825 1.94491 18.0233 0.604083 19.6721 0.604083L28.6408 0.604084C29.0373 0.604084 29.4175 0.76157 29.6978 1.0419C29.9781 1.32223 30.1356 1.70243 30.1356 2.09888L30.1356 9.57283L30.1311 13.9361C30.1446 14.1021 30.4286 18.0334 27.6079 21.0947ZM3.22937 0.604082L12.1981 0.604082C12.5946 0.604082 12.9748 0.761568 13.2551 1.0419C13.5354 1.32222 13.6929 1.70243 13.6929 2.09887L13.6929 9.57283L13.6884 13.9361C13.7019 14.1021 13.9859 18.0334 11.1652 21.0947C9.06803 23.3683 5.89458 24.5207 1.73458 24.5207L0.239786 24.5207L0.239787 20.3069L1.4416 20.0663C3.48947 19.6567 4.914 18.851 5.67634 17.6686C6.07412 17.0316 6.29972 16.3023 6.33107 15.552L1.73458 15.552C1.33814 15.552 0.957929 15.3945 0.677602 15.1142C0.397273 14.8339 0.239787 14.4537 0.239787 14.0572L0.239788 3.59367C0.239788 1.94491 1.58062 0.604082 3.22937 0.604082Z" fill="#E8262A"/>
</svg>
