<svg width="31" height="25" viewBox="0 0 31 25" fill="none" xmlns="http://www.w3.org/2000/svg">
<path d="M2.76719 4.28037C4.86439 2.00679 8.03783 0.854309 12.1978 0.854309H13.6926V5.06813L12.4908 5.30879C10.4429 5.71836 9.01841 6.52405 8.25607 7.70643C7.85829 8.34341 7.6327 9.07274 7.60135 9.82306H12.1978C12.5943 9.82306 12.9745 9.98055 13.2548 10.2609C13.5351 10.5412 13.6926 10.9214 13.6926 11.3179V21.7814C13.6926 23.4301 12.3518 24.771 10.703 24.771H1.73429C1.33785 24.771 0.957644 24.6135 0.677316 24.3332C0.396988 24.0528 0.239502 23.6726 0.239502 23.2762V15.8022L0.243986 11.4389C0.230533 11.273 -0.0534776 7.34171 2.76719 4.28037ZM27.1458 24.771H18.177C17.7806 24.771 17.4004 24.6135 17.12 24.3332C16.8397 24.0528 16.6822 23.6726 16.6822 23.2762V15.8022L16.6867 11.4389C16.6732 11.273 16.3892 7.34171 19.2099 4.28037C21.3071 2.00679 24.4805 0.854309 28.6405 0.854309H30.1353V5.06813L28.9335 5.30879C26.8857 5.71836 25.4611 6.52405 24.6988 7.70643C24.301 8.34341 24.0754 9.07274 24.0441 9.82306H28.6405C29.037 9.82306 29.4172 9.98055 29.6975 10.2609C29.9778 10.5412 30.1353 10.9214 30.1353 11.3179V21.7814C30.1353 23.4301 28.7945 24.771 27.1458 24.771Z" fill="#07509D"/>
</svg>
