<svg width="228" height="53" viewBox="0 0 228 53" fill="none" xmlns="http://www.w3.org/2000/svg">
<path fill-rule="evenodd" clip-rule="evenodd" d="M218.75 4.375C218.75 6.79124 220.709 8.75 223.125 8.75C225.541 8.75 227.5 6.79124 227.5 4.375C227.5 1.95875 225.541 -8.56199e-08 223.125 -1.91237e-07C220.709 -2.96855e-07 218.75 1.95875 218.75 4.375ZM175 4.375C175 6.79124 176.959 8.75 179.375 8.75C181.791 8.75 183.75 6.79124 183.75 4.375C183.75 1.95875 181.791 -1.99799e-06 179.375 -2.10361e-06C176.959 -2.20923e-06 175 1.95875 175 4.375ZM135.625 8.75C133.209 8.74999 131.25 6.79124 131.25 4.375C131.25 1.95875 133.209 -4.1216e-06 135.625 -4.01598e-06C138.041 -3.91037e-06 140 1.95875 140 4.375C140 6.79124 138.041 8.75 135.625 8.75ZM87.5 4.37499C87.5 6.79124 89.4588 8.74999 91.875 8.74999C94.2912 8.74999 96.25 6.79124 96.25 4.37499C96.25 1.95875 94.2912 -5.82274e-06 91.875 -5.92836e-06C89.4588 -6.03397e-06 87.5 1.95875 87.5 4.37499ZM48.125 8.74999C45.7088 8.74999 43.75 6.79124 43.75 4.37499C43.75 1.95875 45.7088 -7.94635e-06 48.125 -7.84073e-06C50.5412 -7.73511e-06 52.5 1.95875 52.5 4.37499C52.5 6.79124 50.5412 8.74999 48.125 8.74999ZM-1.91237e-07 4.37499C-2.96855e-07 6.79124 1.95877 8.74999 4.375 8.74999C6.79124 8.74999 8.75 6.79124 8.75 4.37499C8.75 1.95874 6.79124 -9.64749e-06 4.375 -9.7531e-06C1.95877 -9.85872e-06 -8.56199e-08 1.95874 -1.91237e-07 4.37499ZM223.125 52.5C220.709 52.5 218.75 50.5412 218.75 48.125C218.75 45.7088 220.709 43.75 223.125 43.75C225.541 43.75 227.5 45.7088 227.5 48.125C227.5 50.5412 225.541 52.5 223.125 52.5ZM175 48.125C175 50.5412 176.959 52.5 179.375 52.5C181.791 52.5 183.75 50.5412 183.75 48.125C183.75 45.7087 181.791 43.75 179.375 43.75C176.959 43.75 175 45.7087 175 48.125ZM135.625 52.5C133.209 52.5 131.25 50.5412 131.25 48.125C131.25 45.7087 133.209 43.75 135.625 43.75C138.041 43.75 140 45.7087 140 48.125C140 50.5412 138.041 52.5 135.625 52.5ZM87.5 48.125C87.5 50.5412 89.4588 52.5 91.875 52.5C94.2912 52.5 96.25 50.5412 96.25 48.125C96.25 45.7087 94.2912 43.75 91.875 43.75C89.4588 43.75 87.5 45.7087 87.5 48.125ZM48.125 52.5C45.7088 52.5 43.75 50.5412 43.75 48.125C43.75 45.7087 45.7088 43.75 48.125 43.75C50.5412 43.75 52.5 45.7087 52.5 48.125C52.5 50.5412 50.5412 52.5 48.125 52.5ZM-2.10361e-06 48.125C-2.20923e-06 50.5412 1.95877 52.5 4.375 52.5C6.79124 52.5 8.75 50.5412 8.75 48.125C8.75 45.7087 6.79124 43.75 4.375 43.75C1.95877 43.75 -1.99799e-06 45.7087 -2.10361e-06 48.125Z" fill="#E30101"/>
</svg>
