<svg width="49" height="40" viewBox="0 0 49 40" fill="none" xmlns="http://www.w3.org/2000/svg">
<path d="M48.5688 24.3977C48.8657 28.7684 46.9308 35.9497 39.7843 38.9822C28.8693 39.6391 16.8889 40.0197 7.90424 38.877C5.00164 38.0131 0.521193 31.2455 0.499586 24.6395C5.19008 30.1281 15.1469 32.2583 23.1692 32.1582C31.1914 32.0582 39.4784 30.467 48.5688 24.3977Z" fill="#074E98"/>
<path d="M23.3345 0.845215C25.2046 6.61256 24.7406 19.5277 23.8633 30.6242C27.2268 31.0042 35.1779 29.3538 40.2499 27.1772C33.2939 14.7965 25.4855 1.60445 23.3345 0.845215ZM37.5871 26.9787C36.0459 27.4804 34.4803 27.8481 32.8177 27.9005C31.6961 20.8123 26.8711 8.84358 27.8595 9.45965C29.6102 11.5264 34.704 19.8723 37.8534 26.2661C37.9791 26.5756 37.971 26.8536 37.5871 26.9787ZM22.6221 6.89711C21.9677 2.45199 12.0982 20.029 7.71893 27.3513C9.59531 29.0264 17.8789 30.8854 22.4333 30.6497C22.9455 21.2491 23.6477 11.2217 22.6221 6.89711ZM15.8001 27.8267C15.7272 28.2616 15.4956 28.3935 15.1402 28.3102C13.8517 28.0104 12.5573 27.7492 11.3438 27.1665C10.7068 26.8605 10.5537 26.4439 10.8896 25.797C12.9673 21.9204 15.0807 18.305 17.2601 15.1732C17.7531 15.3609 16.7956 21.882 15.8001 27.8267Z" fill="#074E98"/>
</svg>
