<svg width="46" height="34" viewBox="0 0 46 34" fill="none" xmlns="http://www.w3.org/2000/svg">
<path d="M39.1246 9.17537H32.9953V0.970459H0.305359V27.6364H4.3916C4.3916 31.0415 7.12938 33.7901 10.521 33.7901C13.9125 33.7901 16.6503 31.0415 16.6503 27.6364H28.909C28.909 31.0415 31.6468 33.7901 35.0384 33.7901C38.43 33.7901 41.1678 31.0415 41.1678 27.6364H45.254V17.3803L39.1246 9.17537ZM10.521 29.6876C9.39724 29.6876 8.47784 28.7646 8.47784 27.6364C8.47784 26.5082 9.39724 25.5852 10.521 25.5852C11.6447 25.5852 12.5641 26.5082 12.5641 27.6364C12.5641 28.7646 11.6447 29.6876 10.521 29.6876ZM38.1031 12.2522L42.1076 17.3803H32.9953V12.2522H38.1031ZM35.0384 29.6876C33.9147 29.6876 32.9953 28.7646 32.9953 27.6364C32.9953 26.5082 33.9147 25.5852 35.0384 25.5852C36.1621 25.5852 37.0815 26.5082 37.0815 27.6364C37.0815 28.7646 36.1621 29.6876 35.0384 29.6876Z" fill="#074E98"/>
</svg>
