<svg width="373" height="420" viewBox="0 0 373 420" fill="none" xmlns="http://www.w3.org/2000/svg">
<g opacity="0.15">
<g opacity="0.7">
<path opacity="0.7" d="M164.917 201.631C163.535 165.197 171.92 129.056 189.202 96.9512C206.484 64.8466 232.035 37.9462 263.209 19.0365C276.024 11.0017 289.903 4.80564 304.44 0.6297L286.034 0.629699C269.569 4.61568 253.719 10.8072 238.912 19.0365C206.092 36.8971 178.689 63.2691 159.584 95.3806C140.479 127.492 130.376 164.157 130.339 201.522C130.301 238.887 140.329 275.573 159.37 307.723C178.411 339.873 205.76 366.3 238.544 384.227C251.264 391.035 264.729 396.347 278.671 400.056L298.366 400.056C285.984 396.241 274.116 390.925 263.025 384.227C231.85 365.273 206.302 338.337 189.022 306.204C171.742 274.071 163.357 237.906 164.733 201.448" fill="#07509D"/>
</g>
<path d="M217.402 201.627C216.06 165.198 224.461 129.072 241.739 96.974C259.018 64.8763 284.547 37.9704 315.695 19.0318C328.509 10.997 342.388 4.80094 356.926 0.625L338.519 0.624999C322.064 4.64066 306.217 10.8307 291.397 19.0318C258.55 36.9108 231.131 63.3153 212.027 95.4652C192.922 127.615 182.839 164.321 182.839 201.719C182.839 239.116 192.922 275.823 212.027 307.973C231.131 340.123 258.55 366.527 291.397 384.406C304.117 391.214 317.582 396.526 331.524 400.236L351.219 400.236C338.838 396.42 326.969 391.104 315.879 384.406C284.73 365.423 259.204 338.482 241.927 306.355C224.651 274.229 216.249 238.079 217.586 201.627" fill="#07509D"/>
<g opacity="0.3">
<path opacity="0.3" d="M113.208 201.627C111.826 165.193 120.211 129.052 137.493 96.9474C154.775 64.8427 180.326 37.9423 211.5 19.0326C224.251 11.0027 238.069 4.80644 252.547 0.625854L234.14 0.625854C217.676 4.61183 201.826 10.8034 187.019 19.0326C154.172 36.9116 126.753 63.3161 107.648 95.4661C88.5436 127.616 78.4606 164.322 78.4606 201.72C78.4606 239.117 88.5436 275.824 107.648 307.974C126.753 340.123 154.172 366.528 187.019 384.407C199.738 391.215 213.204 396.527 227.146 400.237L246.657 400.237C234.348 396.383 222.544 391.069 211.5 384.407C180.325 365.453 154.777 338.517 137.497 306.384C120.217 274.251 111.832 238.086 113.208 201.627Z" fill="#07509D"/>
</g>
<g opacity="0.7">
<path opacity="0.7" d="M129.236 228.873C95.7201 214.509 66.6409 191.466 44.9957 162.12C23.3504 132.775 9.92215 98.1874 6.09503 61.9239C4.63797 47.069 5.19543 32.0856 7.75186 17.3799L-0.163209 34.1298C-3.72223 50.567 -5.14508 67.3951 -4.39667 84.1965C-2.23819 121.526 9.94305 157.582 30.8651 188.572C51.7871 219.562 80.676 244.339 114.492 260.296C148.307 276.252 185.799 282.798 223.021 279.244C260.243 275.691 295.819 262.169 326.005 240.102C337.644 231.518 348.212 221.569 357.48 210.467L365.947 192.06C357.208 201.595 347.315 210.005 336.497 217.093C306.064 237.225 270.806 248.863 234.369 250.805C197.931 252.746 161.636 244.921 129.236 228.137" fill="#07509D"/>
</g>
<g opacity="0.3">
<path opacity="0.3" d="M106.94 275.996C73.4234 261.631 44.3439 238.589 22.6987 209.243C1.05343 179.897 -12.3745 145.31 -16.2017 109.047C-17.653 94.1303 -17.0959 79.0866 -14.5451 64.3184L-22.4599 81.2529C-26.0439 97.6853 -27.406 114.524 -26.5094 131.319C-24.3888 168.645 -12.238 204.708 8.66216 235.706C29.5624 266.705 58.4378 291.49 92.2453 307.452C126.053 323.414 163.54 329.96 200.756 326.4C237.973 322.84 273.539 309.306 303.708 287.225C315.347 278.641 325.915 268.691 335.183 257.589L343.651 239.183C334.911 248.718 325.018 257.127 314.2 264.216C283.767 284.348 248.509 295.986 212.072 297.927C175.634 299.869 139.34 292.043 106.94 275.26" fill="#07509D"/>
</g>
<path d="M358.757 170.703C327.838 189.57 292.716 200.461 256.547 202.398C220.378 204.335 184.294 197.257 151.536 181.8C118.779 166.343 90.3746 142.991 68.874 113.841C47.3734 84.6919 33.4503 50.6584 28.3553 14.7975C28.3553 10.748 28.3553 6.69877 27.4349 2.64928L19.3359 2.64928C17.7156 14.0466 17.2224 25.5761 17.8633 37.0701C19.9131 74.5537 32.0692 110.784 53.0422 141.918C74.0152 173.053 103.023 197.931 136.99 213.914C170.957 229.897 208.617 236.39 245.975 232.704C283.333 229.017 318.997 215.289 349.185 192.975C357.649 186.765 365.534 179.804 372.746 172.176L372.746 161.132C368.696 164.445 364.279 167.574 359.677 170.703" fill="#07509D"/>
<path d="M109.723 337.104C102.944 334.865 96.3058 332.222 89.8435 329.189C57.6424 316.808 29.1659 296.354 7.14985 269.793C-14.8662 243.232 -29.6822 211.456 -35.8747 177.517L-35.8747 419.75L230.103 419.75C216.883 416.289 204.053 411.478 191.817 405.393C158.92 390.25 130.602 366.694 109.723 337.104Z" fill="#EA2127"/>
</g>
</svg>
