<svg width="73" height="73" viewBox="0 0 73 73" fill="none" xmlns="http://www.w3.org/2000/svg">
<g clip-path="url(#clip0_72_224)">
<path fill-rule="evenodd" clip-rule="evenodd" d="M52.9706 43.7453C52.0642 43.2921 47.6203 41.1082 46.793 40.8041C45.9657 40.5029 45.3634 40.3539 44.7581 41.2603C44.1559 42.1606 42.4252 44.1986 41.899 44.8008C41.3697 45.4061 40.8435 45.4791 39.9401 45.0289C39.0368 44.5727 36.1228 43.6206 32.6705 40.5425C29.9848 38.1456 28.1689 35.1861 27.6427 34.2797C27.1165 33.3763 27.5849 32.8866 28.0381 32.4364C28.4457 32.0319 28.9415 31.381 29.3947 30.8548C29.8479 30.3255 29.9969 29.9483 30.298 29.3431C30.6022 28.7408 30.4501 28.2146 30.222 27.7614C29.9969 27.3082 28.1902 22.8582 27.4358 21.0484C26.7028 19.2873 25.9576 19.5276 25.404 19.4972C24.8748 19.4728 24.2725 19.4668 23.6702 19.4668C23.068 19.4668 22.0886 19.6918 21.2612 20.5983C20.4309 21.5016 18.0979 23.6886 18.0979 28.1386C18.0979 32.5855 21.3343 36.8833 21.7875 37.4886C22.2407 38.0909 28.1598 47.222 37.227 51.1366C39.3865 52.0673 41.0686 52.624 42.3795 53.0376C44.5452 53.7281 46.5162 53.6308 48.0735 53.3966C49.8073 53.138 53.4208 51.2096 54.1751 49.0987C54.9264 46.9878 54.9264 45.178 54.7013 44.8008C54.4762 44.4236 53.874 44.1986 52.9676 43.7453H52.9706ZM36.4787 66.2628H36.4665C31.0811 66.2638 25.7945 64.8161 21.1609 62.0714L20.0659 61.4205L8.68396 64.4074L11.7226 53.3114L11.0078 52.1738C7.99696 47.3812 6.40361 41.8345 6.41183 36.1746C6.41792 19.5976 19.9047 6.1108 36.4909 6.1108C44.5209 6.1108 52.0703 9.24372 57.746 14.9256C60.5455 17.7135 62.7644 21.0289 64.2743 24.6799C65.7842 28.3309 66.5551 32.245 66.5425 36.1959C66.5365 52.773 53.0497 66.2628 36.4787 66.2628ZM62.0652 10.6094C58.7139 7.23599 54.7264 4.56119 50.3338 2.74003C45.9412 0.918872 41.2308 -0.0124291 36.4757 9.41225e-05C16.5406 9.41225e-05 0.31025 16.2274 0.304167 36.1716C0.294929 42.5188 1.95997 48.7561 5.13129 54.2543L0 73.0001L19.1747 67.9692C24.479 70.8591 30.423 72.3734 36.4635 72.3735H36.4787C56.4138 72.3735 72.6441 56.1462 72.6502 36.199C72.6649 31.4457 71.737 26.7366 69.9201 22.3443C68.1032 17.9519 65.4334 13.9634 62.0652 10.6094Z" fill="white"/>
</g>
<defs>
<clipPath id="clip0_72_224">
<rect width="73" height="73" fill="white"/>
</clipPath>
</defs>
</svg>
