<svg width="41" height="28" viewBox="0 0 41 28" fill="none" xmlns="http://www.w3.org/2000/svg">
<path d="M39.7868 5.03784C39.5589 4.22484 39.1149 3.48879 38.5021 2.90794C37.872 2.30923 37.0997 1.88096 36.2582 1.66355C33.1086 0.83339 20.4902 0.83339 20.4902 0.83339C15.2298 0.773539 9.97062 1.03678 4.74243 1.62162C3.90085 1.85509 3.13002 2.29293 2.49849 2.8962C1.87797 3.49324 1.42851 4.22948 1.19372 5.03616C0.629704 8.07461 0.355667 11.1598 0.375303 14.2501C0.355178 17.3376 0.628542 20.4217 1.19372 23.464C1.42348 24.2673 1.87126 25.0002 2.49346 25.5922C3.11566 26.1842 3.89047 26.6118 4.74243 26.8382C7.93392 27.6667 20.4902 27.6667 20.4902 27.6667C25.7574 27.7267 31.0233 27.4634 36.2582 26.8785C37.0997 26.6611 37.872 26.2328 38.5021 25.6341C39.1147 25.0534 39.5581 24.3172 39.7851 23.5042C40.3638 20.4669 40.6452 17.3805 40.6253 14.2886C40.6688 11.1837 40.3878 8.08269 39.7868 5.03616V5.03784ZM16.4787 19.9924V8.5094L26.9772 14.2517L16.4787 19.9924Z" fill="#E8262A"/>
</svg>
