<svg width="30" height="29" viewBox="0 0 30 29" fill="none" xmlns="http://www.w3.org/2000/svg">
<path fill-rule="evenodd" clip-rule="evenodd" d="M11.8459 11.0947H16.2644V13.2956C16.9009 12.0298 18.5331 10.8924 20.9851 10.8924C25.6856 10.8924 26.8015 13.4122 26.8015 18.0354V26.5976H22.0427V19.0882C22.0427 16.4554 21.4062 14.9707 19.7859 14.9707C17.5385 14.9707 16.6046 16.5708 16.6046 19.087V26.5976H11.8459V11.0947ZM3.68575 26.3953H8.44453V10.8924H3.68575V26.3953ZM9.12622 5.83743C9.1264 6.2363 9.04729 6.63123 8.8935 6.99927C8.73971 7.3673 8.5143 7.7011 8.23038 7.98126C7.65505 8.55305 6.87629 8.87311 6.06514 8.87115C5.25542 8.8706 4.47846 8.55135 3.90228 7.98245C3.61938 7.70133 3.39474 7.36716 3.24122 6.99908C3.0877 6.631 3.00832 6.23624 3.00763 5.83743C3.00763 5.03201 3.32885 4.26109 3.90347 3.69241C4.47914 3.12274 5.25643 2.80335 6.06633 2.80371C6.8777 2.80371 7.65576 3.12374 8.23038 3.69241C8.80381 4.26109 9.12622 5.03201 9.12622 5.83743Z" fill="white"/>
</svg>
