<svg width="30" height="30" viewBox="0 0 30 30" fill="none" xmlns="http://www.w3.org/2000/svg">
<path fill-rule="evenodd" clip-rule="evenodd" d="M9.70669 2.12021C11.1022 2.05596 11.5471 2.04169 15.1019 2.04169C18.6567 2.04169 19.1017 2.05715 20.496 2.12021C21.8903 2.18326 22.8421 2.40573 23.6749 2.72814C24.5469 3.05768 25.3381 3.57282 25.9924 4.23905C26.6586 4.89219 27.1726 5.68215 27.5009 6.55538C27.8245 7.38817 28.0458 8.33992 28.11 9.73186C28.1743 11.1298 28.1886 11.5747 28.1886 15.1283C28.1886 18.6831 28.1731 19.1281 28.11 20.5236C28.047 21.9155 27.8245 22.8673 27.5009 23.7C27.1726 24.5734 26.6578 25.3647 25.9924 26.0188C25.3381 26.685 24.5469 27.1989 23.6749 27.5273C22.8421 27.8509 21.8903 28.0722 20.4984 28.1364C19.1017 28.2007 18.6567 28.2149 15.1019 28.2149C11.5471 28.2149 11.1022 28.1995 9.70669 28.1364C8.31474 28.0734 7.36299 27.8509 6.5302 27.5273C5.65688 27.1989 4.86561 26.6841 4.21149 26.0188C3.54572 25.3652 3.0305 24.5743 2.70177 23.7012C2.37937 22.8685 2.15808 21.9167 2.09384 20.5248C2.0296 19.1269 2.01532 18.6819 2.01532 15.1283C2.01532 11.5735 2.03079 11.1286 2.09384 9.73424C2.15689 8.33992 2.37937 7.38817 2.70177 6.55538C3.03099 5.68224 3.5466 4.89137 4.21268 4.23786C4.86587 3.57223 5.65634 3.05702 6.52902 2.72814C7.3618 2.40573 8.31355 2.18445 9.7055 2.12021H9.70669ZM20.3901 4.4758C19.0101 4.41274 18.5961 4.39966 15.1019 4.39966C11.6078 4.39966 11.1938 4.41274 9.81376 4.4758C8.53722 4.53409 7.84482 4.74705 7.38321 4.92669C6.7729 5.16463 6.33629 5.44659 5.87825 5.90462C5.44407 6.32702 5.10993 6.84124 4.90033 7.40958C4.72068 7.87118 4.50773 8.56358 4.44943 9.84012C4.38638 11.2202 4.37329 11.6342 4.37329 15.1283C4.37329 18.6224 4.38638 19.0365 4.44943 20.4165C4.50773 21.693 4.72068 22.3854 4.90033 22.847C5.10971 23.4145 5.44402 23.9297 5.87825 24.352C6.30059 24.7862 6.81573 25.1205 7.38321 25.3299C7.84482 25.5096 8.53722 25.7225 9.81376 25.7808C11.1938 25.8439 11.6066 25.857 15.1019 25.857C18.5973 25.857 19.0101 25.8439 20.3901 25.7808C21.6667 25.7225 22.3591 25.5096 22.8207 25.3299C23.431 25.092 23.8676 24.81 24.3256 24.352C24.7599 23.9297 25.0942 23.4145 25.3036 22.847C25.4832 22.3854 25.6962 21.693 25.7545 20.4165C25.8175 19.0365 25.8306 18.6224 25.8306 15.1283C25.8306 11.6342 25.8175 11.2202 25.7545 9.84012C25.6962 8.56358 25.4832 7.87118 25.3036 7.40958C25.0656 6.79927 24.7837 6.36265 24.3256 5.90462C23.9032 5.47047 23.389 5.13633 22.8207 4.92669C22.3591 4.74705 21.6667 4.53409 20.3901 4.4758ZM13.4304 19.1626C14.3639 19.5511 15.4034 19.6036 16.3713 19.3109C17.3391 19.0183 18.1754 18.3987 18.7372 17.558C19.299 16.7172 19.5515 15.7075 19.4515 14.7013C19.3516 13.6951 18.9054 12.7548 18.1892 12.0411C17.7326 11.5848 17.1806 11.2354 16.5728 11.0181C15.965 10.8008 15.3166 10.7209 14.6742 10.7843C14.0319 10.8476 13.4116 11.0526 12.8579 11.3845C12.3043 11.7164 11.8312 12.1669 11.4725 12.7035C11.1139 13.2402 10.8788 13.8497 10.784 14.4882C10.6892 15.1267 10.7371 15.7782 10.9244 16.3959C11.1116 17.0137 11.4335 17.5822 11.8668 18.0606C12.3002 18.539 12.8342 18.9153 13.4304 19.1626ZM10.3455 10.3719C10.9702 9.7473 11.7117 9.25182 12.5278 8.91378C13.3439 8.57574 14.2186 8.40175 15.1019 8.40175C15.9853 8.40175 16.86 8.57574 17.6761 8.91378C18.4922 9.25182 19.2337 9.7473 19.8583 10.3719C20.483 10.9965 20.9784 11.7381 21.3165 12.5542C21.6545 13.3703 21.8285 14.245 21.8285 15.1283C21.8285 16.0117 21.6545 16.8863 21.3165 17.7025C20.9784 18.5186 20.483 19.2601 19.8583 19.8847C18.5969 21.1462 16.8859 21.8549 15.1019 21.8549C13.3179 21.8549 11.607 21.1462 10.3455 19.8847C9.08408 18.6232 8.37539 16.9123 8.37539 15.1283C8.37539 13.3443 9.08408 11.6334 10.3455 10.3719ZM23.3203 9.40351C23.4751 9.25749 23.599 9.08191 23.6847 8.88715C23.7705 8.69239 23.8162 8.48241 23.8193 8.26965C23.8224 8.05688 23.7828 7.84566 23.7028 7.64848C23.6228 7.45131 23.5041 7.27218 23.3536 7.12172C23.2031 6.97126 23.024 6.85252 22.8268 6.77252C22.6297 6.69253 22.4184 6.65291 22.2057 6.65601C21.9929 6.65911 21.7829 6.70487 21.5882 6.79058C21.3934 6.87629 21.2178 7.0002 21.0718 7.15499C20.7879 7.45601 20.6324 7.85586 20.6384 8.26965C20.6445 8.68343 20.8115 9.07858 21.1041 9.3712C21.3968 9.66382 21.7919 9.83088 22.2057 9.83691C22.6195 9.84294 23.0193 9.68747 23.3203 9.40351Z" fill="white"/>
</svg>
