<svg width="29" height="30" viewBox="0 0 29 30" fill="none" xmlns="http://www.w3.org/2000/svg">
<path d="M26.995 15.0502C26.995 14.9889 26.995 14.9192 26.9922 14.8383C26.9895 14.6125 26.9839 14.3587 26.9783 14.0882C26.956 13.3103 26.917 12.5351 26.8556 11.8046C26.772 10.798 26.6493 9.95871 26.482 9.32854C26.3054 8.67091 25.9594 8.07114 25.4784 7.58916C24.9974 7.10719 24.3983 6.75991 23.741 6.58202C22.9519 6.37011 21.4072 6.23906 19.2323 6.1582C18.1978 6.11916 17.0908 6.09406 15.9839 6.08012C15.5963 6.07455 15.2366 6.07176 14.9131 6.06897H14.0934C13.7699 6.07176 13.4102 6.07455 13.0226 6.08012C11.9157 6.09406 10.8087 6.11916 9.77422 6.1582C7.59931 6.24185 6.05178 6.3729 5.26547 6.58202C4.60798 6.75947 4.00868 7.10661 3.52762 7.58865C3.04656 8.07069 2.70064 8.67069 2.52453 9.32854C2.35444 9.95871 2.23454 10.798 2.15089 11.8046C2.08955 12.5351 2.05051 13.3103 2.0282 14.0882C2.01984 14.3587 2.01705 14.6125 2.01426 14.8383C2.01426 14.9192 2.01147 14.9889 2.01147 15.0502V15.2064C2.01147 15.2677 2.01147 15.3374 2.01426 15.4183C2.01705 15.6441 2.02263 15.8979 2.0282 16.1683C2.05051 16.9463 2.08955 17.7215 2.15089 18.452C2.23454 19.4586 2.35723 20.2979 2.52453 20.9281C2.88144 22.2637 3.92985 23.3177 5.26547 23.6746C6.05178 23.8865 7.59931 24.0175 9.77422 24.0984C10.8087 24.1374 11.9157 24.1625 13.0226 24.1765C13.4102 24.182 13.7699 24.1848 14.0934 24.1876H14.9131C15.2366 24.1848 15.5963 24.182 15.9839 24.1765C17.0908 24.1625 18.1978 24.1374 19.2323 24.0984C21.4072 24.0147 22.9547 23.8837 23.741 23.6746C25.0766 23.3177 26.1251 22.2665 26.482 20.9281C26.6521 20.2979 26.772 19.4586 26.8556 18.452C26.917 17.7215 26.956 16.9463 26.9783 16.1683C26.9867 15.8979 26.9895 15.6441 26.9922 15.4183C26.9922 15.3374 26.995 15.2677 26.995 15.2064V15.0502ZM24.9874 15.1952C24.9874 15.2538 24.9874 15.3179 24.9846 15.3932C24.9818 15.6107 24.9763 15.8505 24.9707 16.1098C24.9512 16.8515 24.9121 17.5932 24.8536 18.2819C24.7783 19.1798 24.6723 19.9159 24.5413 20.4094C24.3684 21.0535 23.8609 21.5638 23.2196 21.7339C22.6341 21.89 21.159 22.0155 19.1542 22.0908C18.1392 22.1298 17.0462 22.1549 15.956 22.1689C15.574 22.1744 15.2199 22.1772 14.902 22.1772H14.1045L13.0505 22.1689C11.9603 22.1549 10.87 22.1298 9.8523 22.0908C7.84748 22.0127 6.36965 21.89 5.78689 21.7339C5.14557 21.561 4.63809 21.0535 4.46522 20.4094C4.33416 19.9159 4.22821 19.1798 4.15292 18.2819C4.09437 17.5932 4.05812 16.8515 4.03581 16.1098C4.02745 15.8505 4.02466 15.6079 4.02187 15.3932C4.02187 15.3179 4.01908 15.251 4.01908 15.1952V15.0614C4.01908 15.0028 4.01908 14.9387 4.02187 14.8634C4.02466 14.6459 4.03024 14.4061 4.03581 14.1468C4.05533 13.4051 4.09437 12.6634 4.15292 11.9747C4.22821 11.0768 4.33416 10.3407 4.46522 9.84717C4.63809 9.20307 5.14557 8.6928 5.78689 8.52271C6.37244 8.36656 7.84748 8.24109 9.8523 8.1658C10.8673 8.12677 11.9603 8.10167 13.0505 8.08773C13.4325 8.08215 13.7866 8.07937 14.1045 8.07937H14.902L15.956 8.08773C17.0462 8.10167 18.1365 8.12677 19.1542 8.1658C21.159 8.24388 22.6368 8.36656 23.2196 8.52271C23.8609 8.69559 24.3684 9.20307 24.5413 9.84717C24.6723 10.3407 24.7783 11.0768 24.8536 11.9747C24.9121 12.6634 24.9484 13.4051 24.9707 14.1468C24.9791 14.4061 24.9818 14.6487 24.9846 14.8634C24.9846 14.9387 24.9874 15.0056 24.9874 15.0614V15.1952ZM12.0216 18.8647L18.4906 15.1004L12.0216 11.3919V18.8647Z" fill="white"/>
</svg>
