<svg width="203" height="54" viewBox="0 0 203 54" fill="none" xmlns="http://www.w3.org/2000/svg">
<g clip-path="url(#clip0_3013_346)">
<path d="M120.459 22.9775H125.822V42.1253H120.459V39.6361C118.544 42.5083 116.055 42.6997 114.522 42.6997C108.586 42.6997 104.756 38.1043 104.756 32.5514C104.756 26.807 108.586 22.403 114.139 22.403C115.672 22.403 118.544 22.5945 120.268 25.4667V22.9775H120.459ZM110.501 32.5514C110.501 35.615 112.607 37.9128 115.863 37.9128C118.927 37.9128 121.225 35.615 121.225 32.5514C121.225 29.4877 119.119 27.19 115.863 27.19C112.799 27.19 110.501 29.4877 110.501 32.5514ZM136.355 27.5729V42.1253H130.992V27.5729H128.886V22.9775H130.992V16.4672H136.355V22.9775H139.993V27.5729H136.355ZM152.633 27.5729C151.292 26.4241 150.143 26.2326 149.569 26.2326C148.228 26.2326 147.462 26.807 147.462 27.7644C147.462 28.3389 147.654 28.9133 149.186 29.4877L150.526 29.8707C152.058 30.4451 154.356 31.0196 155.314 32.5514C155.888 33.3173 156.272 34.4662 156.272 35.8065C156.272 37.5298 155.697 39.2531 154.165 40.5935C152.633 41.9338 150.718 42.6997 148.42 42.6997C144.398 42.6997 142.291 40.785 140.951 39.4446L143.823 36.1895C144.972 37.3383 146.505 38.4872 148.037 38.4872C149.569 38.4872 150.718 37.7213 150.718 36.381C150.718 35.2321 149.76 34.6576 148.994 34.4662L147.845 34.0832C146.505 33.5088 144.972 32.9343 143.823 31.7855C142.866 30.8281 142.291 29.6792 142.291 28.1474C142.291 26.2326 143.249 24.7008 144.206 23.7434C145.739 22.5945 147.654 22.403 149.186 22.403C150.526 22.403 152.824 22.5945 155.314 24.5093L152.633 27.5729ZM164.315 25.4667C166.23 22.786 168.911 22.403 170.443 22.403C175.997 22.403 179.827 26.807 179.827 32.5514C179.827 38.2957 175.997 42.6997 170.252 42.6997C169.103 42.6997 166.23 42.5083 164.123 39.6361V42.1253H158.953V9.95691H164.315V25.4667ZM163.74 32.5514C163.74 35.615 165.847 37.9128 169.103 37.9128C172.167 37.9128 174.465 35.615 174.465 32.5514C174.465 29.4877 172.358 27.19 169.103 27.19C165.847 27.19 163.74 29.4877 163.74 32.5514ZM188.637 39.2531L179.444 22.9775H185.764L191.701 33.8917L197.063 22.9775H203.191L187.871 52.2737H181.742L188.637 39.2531ZM103.415 26.2326H90.0093V31.594H97.0951C95.9461 35.2321 93.2649 37.7213 88.2857 37.7213C82.7319 37.7213 78.7102 33.1258 78.7102 27.5729C78.7102 22.0201 82.5404 17.2331 88.0942 17.2331C91.1583 17.2331 94.2225 18.7649 96.1376 21.2541L100.542 18.382C97.6697 14.3609 93.0734 12.0632 88.0942 12.0632C79.6678 12.0632 72.7734 18.9564 72.7734 27.5729C72.7734 36.1895 79.2848 43.0827 88.0942 43.0827C96.9036 43.0827 103.415 36.1895 103.415 27.5729C103.606 26.9985 103.415 26.6155 103.415 26.2326Z" fill="black"/>
<path d="M47.8772 26.807H34.4715V30.6366H43.664C42.3234 36.381 38.1102 41.1679 32.5564 43.0827L10.5329 21.0627C12.831 14.3609 19.3423 9.57396 26.8112 9.57396C32.5564 9.57396 37.7272 12.4461 40.9829 16.8501L43.8555 14.3609C40.0253 9.191 33.897 5.74438 26.8112 5.74438C16.8527 5.74438 8.42625 12.8291 6.31965 22.2115L31.5989 47.4867C40.7913 45.189 47.8772 36.7639 47.8772 26.807ZM5.74512 26.9985C5.74512 32.3599 7.85172 37.5298 11.8734 41.5509C15.8951 45.5719 21.2574 47.6782 26.4281 47.6782L5.74512 26.9985Z" fill="white"/>
<path d="M26.8113 0C12.0651 0 0 12.0632 0 26.807C0 41.5509 12.0651 53.614 26.8113 53.614C41.5575 53.614 53.6226 41.5509 53.6226 26.807C53.6226 12.0632 41.5575 0 26.8113 0ZM11.8736 41.7423C7.85188 37.7213 5.74528 32.3599 5.74528 27.19L26.6198 47.8697C21.2575 47.6782 15.8953 45.7634 11.8736 41.7423ZM31.4075 47.2952L6.31981 22.2115C8.42641 12.8291 16.8528 5.74436 26.8113 5.74436C33.8972 5.74436 40.0255 9.19097 43.8556 14.3609L40.983 16.8501C37.7273 12.4461 32.5566 9.57393 26.8113 9.57393C19.3424 9.57393 13.0226 14.3609 10.533 21.0626L32.5566 43.0827C38.1104 41.1679 42.3236 36.3809 43.6641 30.6366H34.4717V26.807H47.8773C47.8773 36.7639 40.7915 45.189 31.4075 47.2952Z" fill="#663399"/>
</g>
<defs>
<clipPath id="clip0_3013_346">
<rect width="203" height="53.614" fill="white"/>
</clipPath>
</defs>
</svg>
