<svg width="22" height="22" viewBox="0 0 22 22" fill="none" xmlns="http://www.w3.org/2000/svg">
<path fill-rule="evenodd" clip-rule="evenodd" d="M6.60769 0.296092C7.7241 0.244697 8.08005 0.233276 10.9239 0.233276C13.7677 0.233276 14.1237 0.245649 15.2392 0.296092C16.3546 0.346535 17.116 0.524513 17.7822 0.782439C18.4799 1.04607 19.1128 1.45818 19.6363 1.99117C20.1692 2.51368 20.5804 3.14565 20.8431 3.84423C21.102 4.51046 21.279 5.27187 21.3304 6.38542C21.3818 7.50373 21.3932 7.85969 21.3932 10.7026C21.3932 13.5464 21.3808 13.9024 21.3304 15.0188C21.2799 16.1323 21.102 16.8937 20.8431 17.56C20.5804 18.2586 20.1686 18.8917 19.6363 19.4149C19.1128 19.9479 18.4799 20.3591 17.7822 20.6218C17.116 20.8806 16.3546 21.0577 15.2411 21.1091C14.1237 21.1605 13.7677 21.1719 10.9239 21.1719C8.08005 21.1719 7.7241 21.1595 6.60769 21.1091C5.49413 21.0586 4.73273 20.8806 4.0665 20.6218C3.36784 20.359 2.73482 19.9472 2.21153 19.4149C1.67891 18.8921 1.26674 18.2594 1.00375 17.5609C0.745827 16.8947 0.5688 16.1333 0.517406 15.0197C0.466011 13.9014 0.45459 13.5455 0.45459 10.7026C0.45459 7.85873 0.466963 7.50278 0.517406 6.38732C0.567849 5.27187 0.745827 4.51046 1.00375 3.84423C1.26713 3.14572 1.67961 2.51303 2.21248 1.99022C2.73503 1.45771 3.36741 1.04555 4.06555 0.782439C4.73178 0.524513 5.49318 0.347487 6.60674 0.296092H6.60769ZM15.1545 2.18057C14.0504 2.13012 13.7192 2.11965 10.9239 2.11965C8.12859 2.11965 7.79738 2.13012 6.69335 2.18057C5.67211 2.2272 5.11819 2.39757 4.74891 2.54128C4.26066 2.73163 3.91137 2.9572 3.54494 3.32362C3.19759 3.66155 2.93028 4.07292 2.7626 4.52759C2.61888 4.89687 2.44852 5.4508 2.40188 6.47203C2.35144 7.57606 2.34097 7.90727 2.34097 10.7026C2.34097 13.4979 2.35144 13.8291 2.40188 14.9331C2.44852 15.9544 2.61888 16.5083 2.7626 16.8776C2.93011 17.3315 3.19755 17.7437 3.54494 18.0815C3.88281 18.4289 4.29492 18.6964 4.74891 18.8639C5.11819 19.0076 5.67211 19.178 6.69335 19.2246C7.79738 19.275 8.12764 19.2855 10.9239 19.2855C13.7202 19.2855 14.0504 19.275 15.1545 19.2246C16.1757 19.178 16.7296 19.0076 17.0989 18.8639C17.5871 18.6735 17.9364 18.448 18.3029 18.0815C18.6502 17.7437 18.9177 17.3315 19.0852 16.8776C19.2289 16.5083 19.3993 15.9544 19.4459 14.9331C19.4964 13.8291 19.5068 13.4979 19.5068 10.7026C19.5068 7.90727 19.4964 7.57606 19.4459 6.47203C19.3993 5.4508 19.2289 4.89687 19.0852 4.52759C18.8948 4.03934 18.6693 3.69005 18.3029 3.32362C17.9649 2.9763 17.5535 2.70899 17.0989 2.54128C16.7296 2.39757 16.1757 2.2272 15.1545 2.18057ZM9.58668 13.93C10.3335 14.2408 11.1651 14.2828 11.9394 14.0487C12.7137 13.8146 13.3827 13.3189 13.8321 12.6463C14.2815 11.9737 14.4835 11.166 14.4036 10.361C14.3236 9.55604 13.9667 8.8038 13.3937 8.23277C13.0285 7.86775 12.5868 7.58826 12.1006 7.4144C11.6144 7.24055 11.0956 7.17667 10.5817 7.22736C10.0679 7.27804 9.5716 7.44203 9.1287 7.70753C8.6858 7.97302 8.30728 8.33342 8.02038 8.76276C7.73348 9.1921 7.54535 9.67972 7.46952 10.1905C7.39369 10.7013 7.43205 11.2225 7.58185 11.7167C7.73164 12.2109 7.98914 12.6657 8.33581 13.0484C8.68248 13.4311 9.10969 13.7322 9.58668 13.93ZM7.11878 6.89746C7.61848 6.39777 8.2117 6.00139 8.86458 5.73096C9.51747 5.46052 10.2172 5.32133 10.9239 5.32133C11.6306 5.32133 12.3303 5.46052 12.9832 5.73095C13.6361 6.00139 14.2293 6.39777 14.729 6.89746C15.2287 7.39716 15.6251 7.99038 15.8955 8.64326C16.166 9.29615 16.3051 9.9959 16.3051 10.7026C16.3051 11.4093 16.166 12.109 15.8955 12.7619C15.6251 13.4148 15.2287 14.008 14.729 14.5077C13.7198 15.5169 12.3511 16.0838 10.9239 16.0838C9.4967 16.0838 8.12796 15.5169 7.11878 14.5077C6.1096 13.4985 5.54265 12.1298 5.54265 10.7026C5.54265 9.27538 6.1096 7.90664 7.11878 6.89746ZM17.4986 6.12273C17.6225 6.00592 17.7216 5.86546 17.7902 5.70965C17.8587 5.55384 17.8953 5.38586 17.8978 5.21565C17.9003 5.04543 17.8686 4.87646 17.8046 4.71872C17.7406 4.56097 17.6456 4.41768 17.5252 4.29731C17.4049 4.17694 17.2616 4.08194 17.1038 4.01795C16.9461 3.95395 16.7771 3.92225 16.6069 3.92474C16.4367 3.92722 16.2687 3.96382 16.1129 4.03239C15.9571 4.10096 15.8166 4.20009 15.6998 4.32392C15.4726 4.56474 15.3483 4.88462 15.3531 5.21565C15.3579 5.54667 15.4916 5.86279 15.7257 6.09689C15.9598 6.33098 16.2759 6.46463 16.6069 6.46946C16.9379 6.47428 17.2578 6.34991 17.4986 6.12273Z" fill="white"/>
</svg>
