<svg width="20" height="20" viewBox="0 0 20 20" fill="none" xmlns="http://www.w3.org/2000/svg">
<path fill-rule="evenodd" clip-rule="evenodd" d="M7.23465 6.67575H10.7695V8.43649C11.2787 7.42383 12.5845 6.51395 14.546 6.51395C18.3064 6.51395 19.1992 8.52977 19.1992 12.2283V19.0781H15.3921V13.0706C15.3921 10.9644 14.883 9.77656 13.5867 9.77656C11.7888 9.77656 11.0417 11.0567 11.0417 13.0696V19.0781H7.23465V6.67575ZM0.706563 18.9163H4.51358V6.51395H0.706563V18.9163ZM5.05894 2.46994C5.05908 2.78904 4.9958 3.10499 4.87276 3.39941C4.74973 3.69384 4.56941 3.96088 4.34227 4.18501C3.882 4.64244 3.25899 4.89849 2.61007 4.89692C1.9623 4.89648 1.34073 4.64109 0.879783 4.18596C0.653466 3.96107 0.47375 3.69373 0.350934 3.39927C0.228117 3.1048 0.164614 2.78899 0.164062 2.46994C0.164062 1.82561 0.421036 1.20887 0.880734 0.75393C1.34127 0.29819 1.96311 0.042684 2.61103 0.042969C3.26012 0.042969 3.88257 0.298991 4.34227 0.75393C4.80101 1.20887 5.05894 1.82561 5.05894 2.46994Z" fill="white"/>
</svg>
