<svg width="141" height="59" viewBox="0 0 141 59" fill="none" xmlns="http://www.w3.org/2000/svg">
<path d="M1.8125 52.0959C1.81724 52.1022 1.81962 52.1064 1.82436 52.1127C2.69029 53.2782 3.57519 54.3976 4.78511 55.3179C7.50624 57.3868 10.6402 58.4748 14.2201 58.4832C22.1985 58.5041 30.1768 58.5 38.1528 58.4853C39.1041 58.4832 40.0673 58.4161 40.9997 58.2631C44.0672 57.7579 46.6792 56.4519 48.7977 54.4521C51.0183 52.3579 52.1855 49.8362 52.2519 46.9496C52.2733 46.0315 52.2543 45.1154 52.2448 44.1973C35.574 49.4169 7.5608 51.6767 1.8125 52.0959Z" fill="url(#paint0_linear_2904_289)"/>
<path d="M52.2422 43.581C52.2398 39.3088 52.2422 35.0388 52.2422 30.7666C52.2422 25.4296 52.2493 20.0946 52.2327 14.7576C52.2304 14.0805 52.1734 13.3908 52.0311 12.7263C51.4404 10.0075 49.9624 7.74353 47.5212 5.97849C46.4394 5.19659 45.2864 4.52579 44.0029 4.03946C43.844 3.97867 43.6447 3.94094 43.4786 3.96609C42.5154 4.11283 41.5499 4.26166 40.5938 4.44823C38.0957 4.93665 35.5928 5.40412 33.1113 5.95333C30.7199 6.48368 28.3356 7.05805 25.9798 7.7016C23.5221 8.3724 21.0785 9.09351 18.6729 9.89427C16.2649 10.695 13.8712 11.544 11.5415 12.5062C9.04571 13.5376 6.61401 14.6989 4.1918 15.8623C2.96528 16.4513 1.82178 17.1808 0.630842 17.8307C0.34141 17.99 0.244141 18.1703 0.244141 18.4742C0.25363 27.9073 0.239396 37.3425 0.26312 46.7756C0.267865 48.6497 0.604744 50.4587 1.81229 52.0938C7.5606 51.6746 35.5738 49.4148 52.247 44.1931C52.2446 43.9897 52.2422 43.7843 52.2422 43.581ZM36.3946 35.9359C36.3686 37.8498 35.524 39.4534 33.7684 40.6043C32.6225 41.3547 31.3082 41.7761 29.8587 41.7803C27.4887 41.7887 25.1163 41.7866 22.7463 41.7782C21.6146 41.774 20.5494 41.5245 19.5578 41.034C17.2827 39.9062 16.1937 38.1684 16.1629 35.8898C16.1463 34.7096 16.1605 33.5295 16.1605 32.3472C16.1605 31.1439 16.1534 29.9386 16.1629 28.7353C16.1771 26.9263 16.9671 25.417 18.5448 24.2787C19.7832 23.3836 21.2469 22.9392 22.8602 22.9371C25.14 22.9329 27.4199 22.9162 29.6974 22.9392C32.9737 22.9728 35.728 24.8615 36.3021 27.8172C36.3638 28.1358 36.397 28.4607 36.397 28.7836C36.4065 31.167 36.4255 33.5525 36.3946 35.9359Z" fill="url(#paint1_linear_2904_289)"/>
<path d="M43.3477 1.12146C42.2161 1.31431 41.1865 1.47363 40.1664 1.66858C38.0099 2.08364 35.8486 2.48192 33.7087 2.95568C31.3411 3.47974 28.9805 4.03524 26.6437 4.65993C24.1836 5.31815 21.7305 6.0162 19.3178 6.80019C16.8908 7.58838 14.5113 8.48977 12.1199 9.35971C9.56488 10.2883 7.12606 11.4308 4.73706 12.6508C3.24482 13.4139 1.79055 14.2377 0.319666 15.0363C0.24375 15.0783 0.165461 15.1202 0.046841 15.1831C0.0302343 15.072 0.00888191 14.9881 0.00888191 14.9043C0.00650951 13.8394 -0.0124686 12.7745 0.0136277 11.7096C0.0753099 9.17314 0.993425 6.88404 2.80831 4.93244C5.24712 2.31003 8.3858 0.716885 12.2362 0.316502C13.0404 0.232652 13.8518 0.190726 14.6608 0.190726C22.4304 0.180245 30.1976 0.173957 37.9672 0.188631C39.7844 0.19492 41.559 0.465335 43.3477 1.12146Z" fill="url(#paint2_linear_2904_289)"/>
<path d="M139.371 36.2735C138.903 36.3007 138.583 36.2986 138.412 36.2672C138.242 36.2336 138.04 36.1288 137.805 35.9506C137.539 35.7536 137.221 35.4454 136.856 35.0262C136.488 34.609 136.147 34.1583 135.826 33.6804L135.459 33.1584L137.694 30.7037C139.172 29.0687 139.909 28.3098 139.928 28.1191C139.94 28.0059 139.791 27.8675 139.546 27.6935C139.302 27.5195 139.115 27.4147 138.953 27.377C138.79 27.3393 138.659 27.4986 138.419 27.6726C138.18 27.8465 137.962 28.0813 137.696 28.335C137.067 28.9471 136.417 29.6263 135.741 30.3725C135.065 31.1209 134.69 31.494 134.617 31.494C134.552 31.5045 134.417 31.2404 134.208 30.7037C134 30.1671 133.817 29.6221 133.658 29.0687C133.563 28.7689 133.459 28.4796 133.302 28.3182C133.167 28.1778 132.73 28.3077 132.538 28.4104C132.358 28.5048 132.439 28.8716 132.55 29.576C132.662 30.2803 132.861 30.9385 133.148 31.5506L133.691 32.6931L132.908 33.7223C132.386 34.4183 131.803 35.2966 131.153 36.3594C130.728 37.0637 130.472 37.5186 130.387 37.7199C130.301 37.9211 130.137 38.1706 130.282 38.2062C130.536 38.2691 130.814 38.2523 130.984 38.1873C131.158 38.1202 131.741 37.4599 132.923 36.1058L134.695 34.0745L135.127 34.5671C136.009 35.6006 136.799 36.2797 137.497 36.6047C138.194 36.9296 138.915 36.9547 139.66 36.6822C139.969 36.569 140.166 36.481 140.251 36.4139C140.419 36.263 140.125 36.2169 139.371 36.2735Z" fill="black"/>
<path d="M55.9312 14.8518C55.4852 14.4389 54.8992 14.1517 54.1756 13.9924C53.452 13.8331 52.6905 13.8289 51.8933 13.9777C50.8827 14.1748 49.725 14.6296 48.4225 15.3382C47.1201 16.0488 45.8651 16.8999 44.6647 17.8914C43.4619 18.8829 42.4939 19.8724 41.7609 20.8597C41.2603 21.5452 40.8665 22.2348 40.5794 22.9266C40.2924 23.6183 40.1453 24.3604 40.1405 25.1549C40.1358 25.9494 40.3232 26.6894 40.7075 27.3769C41.4406 28.7122 43.3361 30.2865 46.3894 32.1019C48.0928 33.1164 49.1817 33.7935 49.6609 34.1331C50.3205 34.6027 50.6882 35.0492 50.7617 35.4726C50.8353 35.8961 50.6241 36.3321 50.1235 36.7849C49.464 37.3865 48.2683 38.0887 46.5412 38.8937C46.0098 39.1411 45.4618 39.3779 44.9043 39.6106C37.7064 42.2959 37.232 41.9878 35.2415 42.451C34.9782 42.5118 34.7647 42.5726 34.5915 42.6334C34.4325 42.6879 34.276 42.7487 34.136 42.8346C34.0577 42.8829 33.9794 42.9415 33.932 43.017C33.8703 43.1176 33.9011 43.2497 34.0055 43.3147C34.1194 43.386 34.2546 43.4195 34.3898 43.4509C34.5346 43.4866 34.684 43.5054 34.8335 43.5285C34.9355 43.5432 35.0351 43.5557 35.1371 43.5662C35.2344 43.5767 35.3364 43.5914 35.4361 43.5914C35.7065 43.6103 35.977 43.6144 36.2474 43.6061C36.2854 43.6061 36.3186 43.6061 36.3566 43.6061C37.3577 43.5578 38.57 43.3755 39.9887 43.0631C42.5414 42.4992 45.1439 41.6398 47.7939 40.4827C50.0287 39.5142 51.5256 38.6065 52.2872 37.7617C53.0487 36.9148 53.1673 36.0281 52.6454 35.0953C52.3892 34.6446 51.9384 34.1625 51.2884 33.6489C50.6384 33.1374 49.5542 32.4058 48.0335 31.4562C45.0324 29.5947 43.31 28.1462 42.8617 27.1128C42.52 26.3225 42.5153 25.44 42.8451 24.461C43.1748 23.4842 43.8082 22.5052 44.7453 21.5284C45.5543 20.6815 46.648 19.799 48.024 18.8766C49.4023 17.9564 50.6811 17.25 51.8625 16.7615C52.299 16.5833 52.6359 16.4492 52.8755 16.359C53.1151 16.2689 53.3097 16.2081 53.4591 16.1767C53.6086 16.1431 53.7035 16.141 53.7462 16.1704C53.7889 16.1976 53.8102 16.2542 53.8102 16.3402C53.8102 16.5184 53.5279 17.1745 52.9633 18.3065C52.3987 19.4405 51.8625 20.4237 51.3524 21.2601C51.2457 21.4299 50.3845 22.4654 50.6218 22.8847C50.9397 23.3878 51.5968 23.2788 52.1519 22.8553C52.7047 22.4319 53.5042 21.52 54.5457 20.1197C55.3215 19.0674 55.86 18.2645 56.1565 17.7153C56.4555 17.1661 56.6025 16.6986 56.6025 16.3129C56.6002 15.749 56.3772 15.2648 55.9312 14.8518Z" fill="black"/>
<path d="M128.161 37.3907C128.158 37.3932 128.156 37.3932 128.153 37.3957C128.153 37.3932 128.158 37.3932 128.161 37.3907Z" fill="black"/>
<path d="M64.2128 28.6431C63.641 27.9073 62.9744 27.5384 62.2152 27.5342C62.0586 27.5153 61.8949 27.5258 61.7194 27.5698C61.6743 27.5803 61.6292 27.595 61.5865 27.6096C61.558 27.6159 61.5296 27.6222 61.5011 27.6306C61.3967 27.6578 61.2947 27.704 61.1998 27.7585C59.6103 28.4754 58.1892 30.4291 57.9473 30.775C57.9283 30.798 57.9117 30.819 57.8927 30.8399C58.0279 30.165 58.092 29.666 58.0849 29.3453C58.073 28.9177 57.9307 28.6389 57.6531 28.5068C57.3969 28.3852 57.1335 28.3433 56.8631 28.379C56.5926 28.4167 56.3933 28.5257 56.2652 28.7039C55.9995 29.0707 55.6199 30.3075 55.1241 32.4121C54.6283 34.5189 54.2392 36.5669 53.9522 38.5604C53.7719 39.8203 53.6509 41.4449 53.5939 43.4321C53.5346 45.4214 53.5749 46.4905 53.7125 46.6415C53.8217 46.7609 54.0352 46.8008 54.1965 46.8217C54.4338 46.8511 54.7066 46.8595 54.9391 46.7945C55.0577 46.7609 55.1312 46.7022 55.155 46.5891C55.1763 46.4947 55.1644 46.3941 55.1692 46.2977C55.1763 46.1677 55.1882 46.0377 55.2 45.9078C55.2119 45.7757 55.2451 45.6353 55.2451 45.5032C55.302 45.0399 55.378 44.5767 55.4634 44.1176C55.544 43.6774 55.6365 43.2392 55.7338 42.8032C56.4574 39.5415 57.5938 36.0659 57.5938 36.0659C57.6175 36.0303 57.7005 36.0344 57.8405 36.0743C57.9544 36.1078 58.1038 36.1644 58.296 36.2483C58.6685 36.4264 59.1524 36.5061 59.7479 36.4872C60.3434 36.4684 60.8867 36.3552 61.3754 36.1497C62.2152 35.8018 62.991 35.1373 63.6979 34.1541C64.4049 33.171 64.7964 32.2235 64.8723 31.3116C64.9529 30.2174 64.7347 29.3306 64.2128 28.6431ZM62.6493 31.8021C62.3623 32.5924 61.8997 33.345 61.2615 34.0577C60.4857 34.913 59.7455 35.3406 59.0433 35.3406C58.6281 35.3406 58.3719 35.2505 58.277 35.0723C58.1821 34.8941 58.2177 34.565 58.3885 34.0849C58.6661 33.324 59.0955 32.4813 59.6815 31.5611C60.2675 30.6408 60.8155 29.9386 61.3255 29.4606C61.3683 29.4208 61.4062 29.3893 61.4442 29.3579C61.6767 29.207 62.4572 28.7751 62.8273 29.4543C62.8415 29.4963 62.8557 29.5529 62.8723 29.6304C63.0099 30.2886 62.9364 31.0118 62.6493 31.8021Z" fill="black"/>
<path d="M87.711 32.48C87.7229 32.4043 87.7371 32.3306 87.749 32.2549C87.7134 32.4379 87.6896 32.5642 87.6777 32.6273C87.692 32.5789 87.7039 32.5305 87.711 32.48Z" fill="black"/>
<path d="M87.6787 32.6281C87.674 32.6451 87.6692 32.66 87.6621 32.677C87.6645 32.6792 87.6692 32.6834 87.6692 32.6834C87.6692 32.6834 87.674 32.66 87.6787 32.6281Z" fill="black"/>
<path d="M126.012 30.5569C125.941 30.6138 125.9 30.6516 125.9 30.6516L125.903 30.6622C125.919 30.6474 125.934 30.6327 125.948 30.618C125.972 30.5969 125.991 30.578 126.012 30.5569Z" fill="black"/>
<path d="M131.179 30.4752C130.965 29.7101 130.462 29.0624 129.698 28.6452C129.022 28.2763 128.175 28.2176 127.447 28.5027C127.046 28.6599 126.716 28.9387 126.605 29.3223C126.602 29.3328 126.6 29.3432 126.597 29.3537C126.588 29.3873 126.581 29.4229 126.574 29.4585C126.571 29.4648 126.571 29.4732 126.569 29.4795C126.55 29.5655 126.659 29.6304 126.742 29.5801C127.039 29.404 127.366 29.2405 127.72 29.1714C128.325 29.0519 128.944 29.2678 129.297 29.7143C129.644 30.1524 129.859 30.7435 129.859 31.2781C129.859 32.0118 129.636 32.888 129.188 33.9089C128.742 34.9297 128.251 35.6739 127.72 36.1435C127.421 36.4076 127.195 36.4621 127.084 36.4914C126.972 36.5187 126.783 36.4663 126.612 36.3154C126.291 36.024 126.182 35.6991 126.14 35.1771C126.097 34.6551 126.17 34.1164 126.363 33.563C126.555 33.0075 126.861 32.4583 127.281 31.9132C127.701 31.3682 128.177 30.9364 128.709 30.6157C128.88 30.5213 128.975 30.4438 128.996 30.383C129.017 30.3222 128.984 30.2216 128.901 30.079C128.837 29.9847 128.747 29.8988 128.631 29.8191C128.569 29.7772 128.51 29.7457 128.448 29.7206C128.422 29.708 128.393 29.6975 128.358 29.6891C128.344 29.6849 128.327 29.6849 128.313 29.6807C127.423 29.4879 126.355 30.2782 126.014 30.5549C125.992 30.5758 125.971 30.5947 125.95 30.6157C125.933 30.6303 125.919 30.645 125.905 30.6597C125.312 31.2026 124.863 31.9405 124.562 32.8796C124.254 33.8439 124.206 34.6782 124.417 35.3825C124.555 35.8248 124.775 36.221 125.079 36.5732C125.383 36.9254 125.715 37.1916 126.076 37.3698C126.809 37.7303 127.516 37.6612 128.137 37.3656C128.977 36.9694 129.62 36.2734 130.073 35.5565C131.017 34.0619 131.658 32.1941 131.179 30.4752Z" fill="black"/>
<path d="M89.9297 35.3241C89.9439 35.2863 89.9558 35.2506 89.9701 35.2128C89.9701 35.1918 89.9701 35.1792 89.9701 35.1792C89.9701 35.1792 89.9535 35.2317 89.9297 35.3241Z" fill="black"/>
<path d="M120.98 20.2832C121.032 20.1763 121.086 20.0694 121.141 19.9646C121.295 19.6669 121.456 19.3798 121.646 19.101C121.779 18.8976 122.023 18.6251 122.033 18.3798C122.038 18.2562 121.819 18.1241 121.694 18.0759C121.352 17.9417 121.12 17.8977 120.88 18.1514C118.614 20.539 117.12 24.83 116.199 28.4418H118.327C118.906 25.6538 119.684 22.8805 120.98 20.2832Z" fill="black"/>
<path d="M122.325 29.1797C121.846 28.7856 121.305 28.6242 120.705 28.6997C120.104 28.7751 119.49 29.0854 118.861 29.6304C118.788 29.687 118.733 29.7331 118.702 29.7708C118.339 30.0727 118.133 30.1796 118.081 30.0957C118.014 29.9909 118.083 29.7687 118.097 29.6576C118.142 29.3264 118.209 28.9952 118.278 28.6661C118.294 28.5906 118.311 28.5131 118.328 28.4376H116.199C115.445 31.3954 115.077 33.8983 114.99 34.5272C114.987 34.5377 114.987 34.5482 114.987 34.5587C114.899 36.0114 114.971 36.7723 114.971 36.7723C115.001 37.0113 115.094 37.1978 115.241 37.3299C115.455 37.5081 115.689 37.6003 115.95 37.6045C116.211 37.6087 116.427 37.5269 116.596 37.3571C116.766 37.1874 116.921 36.7408 117.058 36.0176C117.26 34.936 117.628 33.8795 118.159 32.8439C118.691 31.8105 119.281 30.9908 119.931 30.3892C120.069 30.2635 120.204 30.1356 120.356 30.0245C120.475 29.9385 120.624 29.8295 120.785 29.8232C121.49 29.7939 121.547 30.7183 121.535 31.1565C121.526 31.4814 121.473 31.8021 121.431 32.1249C121.367 32.6238 121.305 32.9341 121.248 33.0557C121.189 33.1772 121.037 33.2904 120.792 33.3931C120.42 33.5525 119.943 33.9528 119.364 34.5922C118.783 35.2316 118.263 35.9296 117.801 36.6863C117.338 37.4431 117.058 38.0573 116.963 38.5269C116.909 38.8182 116.897 39.0656 117.103 39.3067C117.333 39.575 117.725 39.7574 118.114 39.7762C118.413 39.7909 118.769 39.7028 119.184 39.5163C119.865 39.206 120.51 38.6442 121.122 37.8309C121.734 37.0176 122.225 36.0826 122.598 35.024C122.97 33.9654 123.155 32.9445 123.155 31.9572C123.155 31.1858 123.094 30.5947 122.973 30.1796C122.849 29.7666 122.633 29.4333 122.325 29.1797ZM120.681 35.1016C120.415 35.7975 120.097 36.46 119.732 37.0909C119.364 37.7198 119.027 38.1621 118.719 38.4158C118.496 38.6044 118.351 38.6925 118.287 38.6841C118.192 38.6757 118.271 38.3319 118.527 37.6548C118.622 37.4012 118.764 37.1035 118.949 36.7597C119.134 36.4159 119.331 36.0805 119.54 35.7514C119.749 35.4223 119.95 35.1184 120.147 34.8417C120.344 34.5649 120.517 34.3511 120.667 34.2002C120.816 34.0493 120.916 33.999 120.97 34.0451C121.02 34.0912 120.925 34.4434 120.681 35.1016Z" fill="black"/>
<path d="M114.232 30.6744C113.933 30.1 113.634 29.6849 113.331 29.4271C113.027 29.1693 112.69 29.0393 112.318 29.0393C111.86 29.0393 111.428 29.2468 111.025 29.6598C110.619 30.0727 110.259 30.6702 109.941 31.45C109.727 31.9677 109.397 32.7392 108.951 33.7621L108.28 35.2861L108.375 34.2002C108.427 33.4666 108.624 32.5128 108.966 31.3368C109.125 30.7917 109.236 30.3704 109.3 30.0748C109.367 29.7709 109.582 29.3286 109.471 29.0309C109.35 28.7081 108.996 28.5676 108.643 28.5047C108.453 28.4712 108.18 28.4649 107.988 28.4775C107.488 28.511 107.215 29.0644 107.051 29.4355C106.98 29.5969 106.913 29.7583 106.857 29.9218C106.551 30.8127 106.358 31.7686 106.278 32.7853C106.273 32.8565 106.237 32.9236 106.18 32.976C106.112 33.0389 106.04 33.106 105.965 33.1836C105.485 33.6636 104.847 34.1981 104.05 34.7914C103.253 35.3846 102.629 35.7745 102.183 35.9611C101.215 36.3929 100.577 36.4453 100.268 36.1162C100.131 35.9653 100.034 35.6697 99.9814 35.2274C99.9268 34.7851 99.9339 34.3617 99.998 33.9571L100.102 33.3366C100.107 33.3114 100.131 33.2947 100.159 33.2947L101.051 33.3219C102.221 33.3408 103.146 32.9509 103.829 32.1522C104.245 31.6638 104.47 31.1628 104.508 30.6513C104.546 30.1398 104.394 29.7017 104.052 29.339C103.711 28.9764 103.239 28.7626 102.631 28.6976C102.56 28.6892 102.496 28.6829 102.434 28.6787C102.432 28.6787 102.43 28.6787 102.427 28.6766C102.42 28.6766 102.413 28.6766 102.406 28.6745C102.133 28.6515 101.948 28.6494 101.851 28.6703C100.8 28.7584 100.145 29.3663 100.15 29.3663C99.8438 29.6178 99.533 29.9491 99.2198 30.3662C98.6006 31.19 98.1855 32.0495 97.9719 32.9383C97.9411 33.0641 97.8486 33.1689 97.7133 33.2171C97.59 33.2611 97.4595 33.3093 97.3219 33.3638C96.3421 33.7391 95.5592 33.9843 94.9685 34.0975C94.3778 34.2107 93.7538 34.238 93.0943 34.1814L92.1714 34.0954C92.124 34.0912 92.105 34.0367 92.143 34.0095L92.7123 33.5902C93.1275 33.28 93.6044 32.8146 94.1405 32.1941C94.6767 31.5736 95.0681 31.0286 95.3125 30.5591C95.749 29.731 95.8012 29.0309 95.4714 28.4586C95.3338 28.2238 95.1725 28.0666 94.9922 27.987C94.8119 27.9073 94.5296 27.8675 94.1453 27.8675C93.7942 27.8675 93.3197 28.0981 92.7242 28.5592C92.1287 29.0204 91.5855 29.5738 91.0967 30.2237C90.9591 30.4018 90.8358 30.557 90.729 30.689C90.5274 30.9154 90.1478 31.6764 90.1525 31.6198C90.4396 28.7353 91.3743 25.178 92.5415 22.5158C92.9899 21.4928 93.4905 20.4677 94.1168 19.5181C94.2497 19.3148 94.494 19.0423 94.5035 18.797C94.5082 18.6733 94.29 18.5413 94.1643 18.4931C93.8226 18.3589 93.5901 18.3149 93.3505 18.5685C91.0896 20.952 89.4456 25.09 88.5227 28.6976C87.8015 30.9385 87.6876 32.6281 87.6876 32.6281C87.6829 32.6595 87.6781 32.6805 87.6781 32.6805C87.6781 32.6805 87.6734 32.6763 87.671 32.6742C87.5809 32.9446 87.3958 33.1836 87.1325 33.3492C86.9593 33.4582 86.7695 33.5818 86.5655 33.7202C85.7992 34.2275 84.9807 34.695 84.1077 35.1226C83.2346 35.5502 82.6653 35.764 82.3996 35.764C82.3355 35.764 82.2667 35.7347 82.1932 35.6802C82.1196 35.6236 82.0651 35.5523 82.0342 35.4685C81.918 35.131 82.1101 34.3805 82.6178 33.2192C83.1231 32.0579 83.6996 31.0454 84.3497 30.1796C84.6794 29.7373 84.8621 29.448 84.9001 29.3118C84.938 29.1755 84.8645 29.0267 84.6842 28.8674C84.4707 28.6703 84.2595 28.6075 84.046 28.6766C83.8325 28.7479 83.5193 28.9848 83.1042 29.3894L82.345 30.1272C82.3236 30.1482 82.2857 30.1482 82.2643 30.1293L81.7946 29.7017C81.453 29.3915 81.0283 29.2049 80.5182 29.1441C80.0082 29.0833 79.4791 29.1294 78.9311 29.2845C78.3831 29.4397 77.8303 29.6807 77.2704 30.0098C76.7129 30.339 76.21 30.7226 75.7616 31.1586C75.3156 31.5967 74.936 32.0872 74.6276 32.6322C74.611 32.6595 74.5968 32.6888 74.5825 32.7161C74.5137 32.8482 74.4212 32.9656 74.3097 33.0704C74.2741 33.106 74.2362 33.1416 74.1958 33.1815C73.7166 33.6615 73.0784 34.196 72.2813 34.7893C71.4842 35.3825 70.8602 35.7724 70.4142 35.959C69.4463 36.3908 68.8081 36.4432 68.4997 36.1141C68.3621 35.9632 68.2648 35.6676 68.2127 35.2253C68.1581 34.783 68.1652 34.3596 68.2293 33.955L68.3336 33.3345C68.3384 33.3093 68.3621 33.2926 68.3906 33.2926L69.2826 33.3198C70.4522 33.3387 71.3774 32.9488 72.0607 32.1501C72.4758 31.6617 72.7012 31.1607 72.7392 30.6492C72.7771 30.1377 72.6253 29.6996 72.2837 29.3369C71.9705 29.0057 71.5459 28.8003 71.0097 28.7165C69.4012 28.4041 68.4072 29.3411 68.4048 29.3432C68.0893 29.5969 67.769 29.9365 67.4464 30.3683C66.7655 31.276 66.329 32.2235 66.1368 33.2108C65.9779 34.0661 66.0467 34.8648 66.3456 35.6089C66.6421 36.351 67.1 36.8499 67.7192 37.1035C69.3467 37.7806 71.3205 37.0428 73.6407 34.8899C73.7617 34.7725 73.9064 34.6363 74.0725 34.4811C74.0511 34.8752 74.0653 35.1771 74.1199 35.3825C74.2053 35.6739 74.4046 35.9611 74.7178 36.242C75.0309 36.525 75.3583 36.7032 75.6999 36.7786C76.2646 36.9107 76.8221 36.8143 77.3748 36.4893C77.9276 36.1644 78.72 35.4664 79.752 34.3952L80.4566 33.6615C80.4922 33.6259 80.5586 33.6489 80.5538 33.6971L80.5016 34.3679C80.4495 35.2421 80.6559 35.8689 81.1232 36.2504C81.5906 36.6319 82.2643 36.7241 83.1421 36.5334C84.0199 36.3405 85.0068 35.8814 86.1029 35.1582C86.5299 34.8689 86.9261 34.5818 87.2914 34.2988C87.3602 34.2443 87.467 34.2925 87.4575 34.3742C87.3389 35.328 87.2321 36.3258 87.1396 37.3719C87.0447 38.3781 87.002 39.0027 87.0115 39.248C87.0233 39.4933 87.0969 39.6798 87.2345 39.8119C87.4361 40.0089 87.7303 40.0949 88.1123 40.0655C88.1218 40.0655 88.1336 40.0655 88.1431 40.0655C88.4515 40.0467 88.7552 39.944 88.8406 39.7679C88.9141 39.6169 88.9521 39.4555 88.9758 39.2941C89.0138 39.0468 89.0802 38.7218 89.1609 38.3655C89.4147 37.2398 89.8062 35.7829 89.9319 35.3259C89.958 35.2337 89.9722 35.1813 89.9722 35.1813C89.9722 35.1813 89.9722 35.1939 89.9722 35.2148C89.9841 35.1813 89.996 35.1498 90.0078 35.1142C90.0173 35.0911 90.0434 35.0786 90.0695 35.0828C90.7978 35.2001 91.519 35.2693 92.2331 35.2861C92.9614 35.305 93.5996 35.2798 94.1476 35.2085C94.6957 35.1373 95.1464 35.0639 95.4952 34.9821C95.8463 34.9025 96.1452 34.8207 96.3895 34.7348C96.7881 34.5943 97.2365 34.3931 97.7347 34.1332C97.775 34.1122 97.8225 34.1374 97.8249 34.1772C97.8343 34.6761 97.9292 35.154 98.1143 35.6089C98.4108 36.351 98.8687 36.8499 99.4879 37.1035C101.115 37.7806 103.089 37.0428 105.409 34.8899C105.597 34.7075 105.839 34.4811 106.135 34.2086C106.171 34.1751 106.237 34.1981 106.237 34.2464C106.24 35.1016 106.278 35.7263 106.351 36.1162C106.437 36.548 106.617 36.9212 106.895 37.2314C107.172 37.5417 107.464 37.6968 107.772 37.6968C107.953 37.6968 108.107 37.6653 108.235 37.6045C108.363 37.5438 108.491 37.4452 108.617 37.309C108.745 37.1727 108.883 36.9379 109.032 36.6046C109.181 36.2713 109.34 35.8835 109.511 35.4412C109.682 34.9989 109.905 34.3889 110.183 33.607C110.885 31.624 111.497 30.4773 112.019 30.165C112.199 30.0518 112.33 30.0287 112.41 30.0937C112.491 30.1587 112.652 30.4039 112.897 30.8274C113.162 31.2969 113.43 31.6407 113.703 31.8566C113.974 32.0726 114.223 32.1438 114.446 32.0684C114.626 32.0034 114.707 31.8881 114.685 31.7225C114.657 31.5611 114.51 31.211 114.232 30.6744ZM100.847 31.6009C101.016 31.3263 101.215 31.0664 101.433 30.819C101.606 30.6199 101.787 30.4249 101.993 30.253C102.185 30.0916 102.432 29.9029 102.719 30.0057C103.009 30.1084 103.103 30.4375 103.103 30.6765C103.103 31.0098 102.978 31.3535 102.809 31.6533C102.636 31.9615 102.368 32.2256 102.024 32.41C101.45 32.7119 100.98 32.7622 100.62 32.5652C100.442 32.4583 100.518 32.1375 100.847 31.6009ZM68.9766 31.7602C69.2257 31.3179 69.5507 30.9007 69.9492 30.5046C70.3478 30.1105 70.6491 29.926 70.8508 29.9553C71.0002 29.9742 71.0975 30.0266 71.1449 30.1105C71.1924 30.1943 71.228 30.3599 71.2493 30.6031C71.2802 30.9888 71.209 31.3389 71.0334 31.6533C70.8579 31.9677 70.5945 32.2193 70.2434 32.408C69.6693 32.7098 69.1996 32.7601 68.839 32.5631C68.6824 32.4708 68.7275 32.2025 68.9766 31.7602ZM80.7152 31.6407C80.4922 31.8797 79.8469 32.4373 78.784 33.3114C77.2515 34.5797 76.4591 35.1918 76.4069 35.1457C76.3334 35.0807 76.4164 34.783 76.6631 34.2568C76.9075 33.7307 77.1637 33.2884 77.4294 32.932C78.1008 32.039 78.8932 31.3619 79.8065 30.9008C80.2858 30.6576 80.5942 30.5381 80.7318 30.5486C80.8694 30.5591 80.9595 30.6953 81.0022 30.9573C81.0354 31.1733 80.9382 31.3997 80.7152 31.6407ZM91.1228 32.8461C91.0801 32.7329 91.2604 32.3744 91.6661 31.7665C92.0694 31.1607 92.5083 30.5779 92.9828 30.0182C93.4573 29.4585 93.7562 29.1797 93.8843 29.1797C94.0006 29.1797 94.0053 29.2971 93.9009 29.5319C93.7515 29.861 93.4597 30.3201 93.0231 30.907C92.5866 31.494 92.1714 31.9929 91.7776 32.4017C91.3814 32.8104 91.1632 32.9593 91.1228 32.8461Z" fill="black"/>
<defs>
<linearGradient id="paint0_linear_2904_289" x1="1.81222" y1="51.3455" x2="52.2634" y2="51.3455" gradientUnits="userSpaceOnUse">
<stop stop-color="#F16A24"/>
<stop offset="1" stop-color="#EC1678"/>
</linearGradient>
<linearGradient id="paint1_linear_2904_289" x1="0.243903" y1="28.0275" x2="52.2467" y2="28.0275" gradientUnits="userSpaceOnUse">
<stop stop-color="#EC197A"/>
<stop offset="0.5" stop-color="#EF395B"/>
<stop offset="1" stop-color="#F05F3B"/>
</linearGradient>
<linearGradient id="paint2_linear_2904_289" x1="0.00271435" y1="7.68401" x2="43.3487" y2="7.68401" gradientUnits="userSpaceOnUse">
<stop stop-color="#F16A24"/>
<stop offset="1" stop-color="#ED1775"/>
</linearGradient>
</defs>
</svg>
