<svg width="21" height="20" viewBox="0 0 21 20" fill="none" xmlns="http://www.w3.org/2000/svg">
<path d="M17.7578 2.91006C16.841 1.98399 15.749 1.24973 14.5455 0.750111C13.3419 0.250494 12.0509 -0.00448012 10.7478 5.95696e-05C5.28781 5.95696e-05 0.837813 4.45006 0.837813 9.91006C0.837813 11.6601 1.29781 13.3601 2.15781 14.8601L0.757812 20.0001L6.00781 18.6201C7.45781 19.4101 9.08781 19.8301 10.7478 19.8301C16.2078 19.8301 20.6578 15.3801 20.6578 9.92006C20.6578 7.27006 19.6278 4.78006 17.7578 2.91006ZM10.7478 18.1501C9.26781 18.1501 7.81781 17.7501 6.54781 17.0001L6.24781 16.8201L3.12781 17.6401L3.95781 14.6001L3.75781 14.2901C2.93556 12.977 2.49895 11.4593 2.49781 9.91006C2.49781 5.37006 6.19781 1.67006 10.7378 1.67006C12.9378 1.67006 15.0078 2.53006 16.5578 4.09006C17.3253 4.85402 17.9335 5.76272 18.3472 6.76348C18.7609 7.76425 18.9718 8.83717 18.9678 9.92006C18.9878 14.4601 15.2878 18.1501 10.7478 18.1501ZM15.2678 11.9901C15.0178 11.8701 13.7978 11.2701 13.5778 11.1801C13.3478 11.1001 13.1878 11.0601 13.0178 11.3001C12.8478 11.5501 12.3778 12.1101 12.2378 12.2701C12.0978 12.4401 11.9478 12.4601 11.6978 12.3301C11.4478 12.2101 10.6478 11.9401 9.70781 11.1001C8.96781 10.4401 8.47781 9.63006 8.32781 9.38006C8.18781 9.13006 8.30781 9.00006 8.43781 8.87006C8.54781 8.76006 8.68781 8.58006 8.80781 8.44006C8.92781 8.30006 8.97781 8.19006 9.05781 8.03006C9.13781 7.86006 9.09781 7.72006 9.03781 7.60006C8.97781 7.48006 8.47781 6.26006 8.27781 5.76006C8.07781 5.28006 7.86781 5.34006 7.71781 5.33006H7.23781C7.06781 5.33006 6.80781 5.39006 6.57781 5.64006C6.35781 5.89006 5.71781 6.49006 5.71781 7.71006C5.71781 8.93006 6.60781 10.1101 6.72781 10.2701C6.84781 10.4401 8.47781 12.9401 10.9578 14.0101C11.5478 14.2701 12.0078 14.4201 12.3678 14.5301C12.9578 14.7201 13.4978 14.6901 13.9278 14.6301C14.4078 14.5601 15.3978 14.0301 15.5978 13.4501C15.8078 12.8701 15.8078 12.3801 15.7378 12.2701C15.6678 12.1601 15.5178 12.1101 15.2678 11.9901Z" fill="white"/>
</svg>
